<svg width="24" height="22" viewBox="0 0 24 22" fill="none" xmlns="http://www.w3.org/2000/svg">
<path d="M1.87527 4.68604H17.1982C17.6839 5.8816 18.814 6.68494 20.1308 6.68494C21.8908 6.68494 23.3175 5.28854 23.3175 3.52854C23.3175 1.76855 21.8908 0.307144 20.1308 0.307144C18.8344 0.307144 17.7196 1.09935 17.2219 2.15827H1.87527C1.20647 2.15827 0.664307 2.71813 0.664307 3.42214C0.664341 4.12618 1.20651 4.68604 1.87527 4.68604Z" fill="white"/>
<path d="M22.1266 17.2223H6.73218C6.23524 16.0267 5.12222 15.3298 3.82788 15.3298C2.07072 15.3298 0.64624 16.7526 0.64624 18.5121C0.64624 20.2716 2.07069 21.6928 3.82788 21.6928C5.14261 21.6928 6.27094 20.8089 6.75586 19.75H22.1266C22.7944 19.75 23.3356 19.1899 23.3356 18.4861C23.3356 17.7824 22.7943 17.2223 22.1266 17.2223ZM3.83222 19.5337C3.26993 19.5337 2.81408 19.0773 2.81408 18.5142C2.81408 17.9512 3.26993 17.4948 3.83222 17.4948C4.3945 17.4948 4.85035 17.9512 4.85035 18.5142C4.85035 19.0773 4.3945 19.5337 3.83222 19.5337Z" fill="white"/>
<path d="M1.87527 12.3034H9.04015C9.52585 13.3623 10.656 14.2417 11.9728 14.2417C13.2897 14.2417 14.4198 13.3623 14.9055 12.3034H22.1428C22.8116 12.3034 23.3538 11.6581 23.3538 10.9542C23.3538 10.2501 22.8116 9.60489 22.1428 9.60489H14.8818C14.3841 8.54597 13.2693 7.71906 11.9728 7.71906C10.6764 7.71906 9.56165 8.54597 9.06389 9.60489H1.87527C1.20647 9.60489 0.664307 10.2501 0.664307 10.9542C0.664341 11.6582 1.20651 12.3034 1.87527 12.3034Z" fill="white"/>
</svg>
