<svg width="13" height="14" viewBox="0 0 13 14" fill="none" xmlns="http://www.w3.org/2000/svg">
<path d="M2.82609 14H0V4.45455H2.82609V14ZM1.41361 3.18182C0.631913 3.18182 0 2.46845 0 1.59027C0 0.712091 0.633043 0 1.41361 0C2.19248 0 2.82609 0.713364 2.82609 1.59027C2.82609 2.46845 2.19248 3.18182 1.41361 3.18182ZM13 14H10.283V9.35455C10.283 8.24664 10.2643 6.82182 8.87052 6.82182C7.45578 6.82182 7.23817 8.02836 7.23817 9.27436V14H4.52174V4.44755H7.12965V5.75273H7.16639C7.52926 5.00182 8.41609 4.21018 9.7387 4.21018C12.4913 4.21018 13 6.18864 13 8.76082V14Z" fill="white"/>
</svg>
