<svg width="108" height="40" viewBox="0 0 108 40" fill="none" xmlns="http://www.w3.org/2000/svg">
<path d="M47.0069 26.6466C47.0069 26.4457 46.8873 26.3453 46.6482 26.3453C46.1914 26.3453 45.7764 26.5569 45.4034 26.9802C45.1833 27.229 45.0291 27.498 44.9406 27.7874C44.8975 27.9285 44.876 28.0529 44.876 28.1605C44.876 28.2681 44.888 28.3542 44.9119 28.4188C44.9382 28.481 44.9705 28.5324 45.0087 28.573C45.0901 28.6591 45.1845 28.6926 45.2921 28.6735C45.4093 28.6257 45.5122 28.6017 45.6007 28.6017C45.6915 28.6017 45.7633 28.6137 45.8159 28.6376C45.8709 28.6591 45.9152 28.6866 45.9486 28.7201C46.018 28.7871 46.0527 28.8517 46.0527 28.9138C46.0527 29.0358 46.012 29.0992 45.9307 29.104C45.8063 29.1159 45.676 29.1506 45.5397 29.208C45.4034 29.2654 45.2658 29.3407 45.1271 29.434C44.9884 29.5249 44.8653 29.6277 44.7576 29.7425C44.5113 30.0056 44.3881 30.2699 44.3881 30.5353C44.3881 30.6621 44.418 30.7577 44.4778 30.8223C44.5783 30.9347 44.6978 30.9909 44.8366 30.9909C44.9753 30.9909 45.1104 30.9646 45.2419 30.912C45.3759 30.857 45.4966 30.7912 45.6043 30.7147C45.7669 30.5975 45.9247 30.448 46.0778 30.2663C46.1543 30.1754 46.2213 30.13 46.2787 30.13C46.3361 30.13 46.3791 30.1646 46.4078 30.234C46.4389 30.301 46.4545 30.3727 46.4545 30.4492C46.4545 30.6071 46.4246 30.7243 46.3648 30.8008C46.305 30.8749 46.2296 30.9503 46.1388 31.0268C46.0503 31.1009 45.9439 31.1703 45.8195 31.2349C45.5205 31.3879 45.2001 31.4645 44.8581 31.4645C44.2817 31.4645 43.8871 31.2755 43.6742 30.8977C43.5977 30.7565 43.5594 30.6119 43.5594 30.4636C43.5594 30.3153 43.581 30.1778 43.624 30.051C43.6695 29.9243 43.7269 29.8071 43.7962 29.6995C43.8656 29.5895 43.9433 29.4914 44.0294 29.4053C44.1155 29.3168 44.2004 29.2403 44.2841 29.1757C44.4491 29.0466 44.5854 28.9736 44.6931 28.9569C44.4228 28.8493 44.241 28.64 44.1478 28.3291C44.1191 28.2286 44.1047 28.1067 44.1047 27.9632C44.1047 27.8197 44.1322 27.6618 44.1872 27.4896C44.2422 27.3151 44.32 27.1488 44.4204 26.991C44.5209 26.8308 44.6404 26.6813 44.7792 26.5426C44.9179 26.4039 45.0709 26.2831 45.2383 26.1803C45.5995 25.9602 45.9797 25.8502 46.3791 25.8502C46.7976 25.8502 47.1098 25.9543 47.3154 26.1623C47.4804 26.3297 47.563 26.5438 47.563 26.8045C47.563 27.101 47.4386 27.4012 47.1899 27.7049C47.0392 27.8867 46.9029 28.0098 46.7809 28.0744C46.6613 28.139 46.5669 28.1748 46.4975 28.182C46.4305 28.1868 46.3672 28.1784 46.3074 28.1569C46.25 28.133 46.1998 28.1019 46.1567 28.0636C46.0587 27.9751 46.0096 27.895 46.0096 27.8233C46.0096 27.7348 46.0407 27.6666 46.1029 27.6188L46.4258 27.3892C46.8132 27.1046 47.0069 26.8571 47.0069 26.6466Z" fill="white"/>
<path d="M52.8376 30.4851C52.8376 30.7123 52.9237 30.8259 53.0959 30.8259C53.4116 30.8259 53.8217 30.4301 54.3263 29.6385C54.477 29.4041 54.6277 29.1566 54.7784 28.8959L55.216 28.0923C55.8426 26.8798 56.2037 26.1886 56.2994 26.0188C56.3472 25.9327 56.4154 25.8897 56.5039 25.8897C56.5924 25.8897 56.6665 25.9028 56.7263 25.9291C56.7861 25.9531 56.8375 25.9853 56.8806 26.026C56.981 26.1217 57.0061 26.2173 56.9559 26.313C56.7885 26.6239 56.633 26.9719 56.4895 27.3569L55.5927 29.8573C55.497 30.1108 55.3978 30.356 55.2949 30.5927C55.1921 30.8271 55.0761 31.0603 54.947 31.2923C54.8202 31.5242 54.6839 31.7455 54.538 31.9559C54.3921 32.1664 54.2391 32.3613 54.0788 32.5407C53.9186 32.7224 53.7548 32.8803 53.5874 33.0142C53.231 33.2964 52.8902 33.4375 52.5649 33.4375C52.5028 33.4375 52.4418 33.4232 52.382 33.3945C52.3222 33.3658 52.2863 33.3251 52.2744 33.2725C52.2624 33.2199 52.2708 33.184 52.2995 33.1649C52.3282 33.1457 52.3664 33.1266 52.4143 33.1075C53.0744 32.8611 53.6974 32.2035 54.2833 31.1344C54.4555 30.8187 54.6145 30.4899 54.7604 30.1479C54.9278 29.7054 55.0355 29.4161 55.0833 29.2797L54.721 29.8322C53.9676 30.9204 53.3279 31.4645 52.8017 31.4645C52.4454 31.4645 52.2074 31.309 52.0878 30.9981C52.052 30.9 52.034 30.8163 52.034 30.747V30.6107C52.034 30.3213 52.2026 29.7712 52.5398 28.9605L53.286 27.2242C53.4295 26.8774 53.5013 26.6646 53.5013 26.5856C53.5013 26.5043 53.4869 26.4433 53.4582 26.4027C53.4295 26.362 53.3972 26.3297 53.3613 26.3058L53.2645 26.2341C53.2358 26.2149 53.2214 26.1862 53.2214 26.148C53.2214 26.1097 53.2406 26.0714 53.2788 26.0332C53.3171 25.9949 53.3673 25.9614 53.4295 25.9327C53.5539 25.8777 53.6758 25.8502 53.7954 25.8502C53.9174 25.8502 54.0107 25.8634 54.0752 25.8897C54.1422 25.9136 54.1972 25.9447 54.2403 25.983C54.324 26.0619 54.3658 26.1575 54.3658 26.2699C54.3658 26.38 54.3443 26.5103 54.3012 26.661C54.2606 26.8116 54.2056 26.9767 54.1362 27.156C54.0693 27.333 53.9915 27.5207 53.903 27.7192L53.3578 28.9174C53.011 29.6803 52.8376 30.185 52.8376 30.4313V30.4851Z" fill="white"/>
<path d="M64.817 26.6466C64.817 26.4457 64.6974 26.3453 64.4583 26.3453C64.0015 26.3453 63.5866 26.5569 63.2135 26.9802C62.9934 27.229 62.8392 27.498 62.7507 27.7874C62.7076 27.9285 62.6861 28.0529 62.6861 28.1605C62.6861 28.2681 62.6981 28.3542 62.722 28.4188C62.7483 28.481 62.7806 28.5324 62.8189 28.573C62.9002 28.6591 62.9946 28.6926 63.1023 28.6735C63.2194 28.6257 63.3223 28.6017 63.4108 28.6017C63.5017 28.6017 63.5734 28.6137 63.626 28.6376C63.681 28.6591 63.7253 28.6866 63.7587 28.7201C63.8281 28.7871 63.8628 28.8517 63.8628 28.9138C63.8628 29.0358 63.8221 29.0992 63.7408 29.104C63.6164 29.1159 63.4861 29.1506 63.3498 29.208C63.2135 29.2654 63.076 29.3407 62.9372 29.434C62.7985 29.5249 62.6754 29.6277 62.5677 29.7425C62.3214 30.0056 62.1982 30.2699 62.1982 30.5353C62.1982 30.6621 62.2281 30.7577 62.2879 30.8223C62.3884 30.9347 62.508 30.9909 62.6467 30.9909C62.7854 30.9909 62.9205 30.9646 63.052 30.912C63.186 30.857 63.3067 30.7912 63.4144 30.7147C63.577 30.5975 63.7348 30.448 63.8879 30.2663C63.9644 30.1754 64.0314 30.13 64.0888 30.13C64.1462 30.13 64.1892 30.1646 64.2179 30.234C64.249 30.301 64.2646 30.3727 64.2646 30.4492C64.2646 30.6071 64.2347 30.7243 64.1749 30.8008C64.1151 30.8749 64.0398 30.9503 63.9489 31.0268C63.8604 31.1009 63.754 31.1703 63.6296 31.2349C63.3307 31.3879 63.0102 31.4645 62.6682 31.4645C62.0918 31.4645 61.6972 31.2755 61.4844 30.8977C61.4078 30.7565 61.3696 30.6119 61.3696 30.4636C61.3696 30.3153 61.3911 30.1778 61.4341 30.051C61.4796 29.9243 61.537 29.8071 61.6063 29.6995C61.6757 29.5895 61.7534 29.4914 61.8395 29.4053C61.9256 29.3168 62.0105 29.2403 62.0942 29.1757C62.2592 29.0466 62.3955 28.9736 62.5032 28.9569C62.2329 28.8493 62.0512 28.64 61.9579 28.3291C61.9292 28.2286 61.9148 28.1067 61.9148 27.9632C61.9148 27.8197 61.9423 27.6618 61.9973 27.4896C62.0524 27.3151 62.1301 27.1488 62.2305 26.991C62.331 26.8308 62.4506 26.6813 62.5893 26.5426C62.728 26.4039 62.881 26.2831 63.0484 26.1803C63.4096 25.9602 63.7898 25.8502 64.1892 25.8502C64.6078 25.8502 64.9199 25.9543 65.1255 26.1623C65.2906 26.3297 65.3731 26.5438 65.3731 26.8045C65.3731 27.101 65.2487 27.4012 65 27.7049C64.8493 27.8867 64.713 28.0098 64.591 28.0744C64.4714 28.139 64.377 28.1748 64.3076 28.182C64.2407 28.1868 64.1773 28.1784 64.1175 28.1569C64.0601 28.133 64.0099 28.1019 63.9668 28.0636C63.8688 27.9751 63.8197 27.895 63.8197 27.8233C63.8197 27.7348 63.8508 27.6666 63.913 27.6188L64.2359 27.3892C64.6233 27.1046 64.817 26.8571 64.817 26.6466Z" fill="white"/>
<path d="M71.1607 31.3532C71.1129 31.4226 71.028 31.4573 70.906 31.4573C70.7864 31.4573 70.6848 31.4238 70.6011 31.3568C70.5174 31.2899 70.448 31.2062 70.393 31.1057C70.283 30.9048 70.228 30.7039 70.228 30.503C70.228 30.3021 70.2495 30.0965 70.2925 29.886C70.338 29.6756 70.399 29.4543 70.4755 29.2223C70.552 28.988 70.6405 28.7488 70.741 28.5049C70.8438 28.2609 70.9526 28.023 71.0674 27.791C71.3018 27.3079 71.535 26.8894 71.767 26.5354H71.7275C71.4429 26.5354 71.1786 26.6 70.9347 26.7291C70.8749 26.7746 70.8175 26.7973 70.7625 26.7973C70.6477 26.7973 70.5365 26.7411 70.4289 26.6287C70.1801 26.3656 70.3284 26.148 70.8737 25.9758C71.1296 25.8921 71.3353 25.8502 71.4907 25.8502C71.6486 25.8502 71.7753 25.8753 71.871 25.9256C71.9667 25.9734 72.048 26.0308 72.1149 26.0977C72.2202 26.203 72.2943 26.307 72.3374 26.4098C72.3828 26.5127 72.4055 26.6036 72.4055 26.6825C72.4055 26.759 72.3816 26.8631 72.3338 26.9946C72.2883 27.1237 72.2297 27.2624 72.158 27.4107L71.914 27.8843C71.8279 28.0493 71.7418 28.2227 71.6558 28.4044C71.5697 28.5862 71.4836 28.7679 71.3975 28.9497C71.3114 29.1315 71.2348 29.3084 71.1679 29.4806C71.022 29.8657 70.949 30.1921 70.949 30.46C70.949 30.6083 70.9634 30.7362 70.9921 30.8438L71.3688 30.2161C72.1341 28.982 72.8898 28.0541 73.636 27.4323C73.8464 27.2553 74.0545 27.1166 74.2602 27.0161C74.2937 26.9994 74.3331 26.991 74.3786 26.991C74.424 26.991 74.4718 26.997 74.5221 27.0089C74.5747 27.0185 74.6237 27.0341 74.6691 27.0556C74.7744 27.1058 74.827 27.1668 74.827 27.2385C74.827 27.272 74.815 27.3031 74.7911 27.3318L74.6656 27.4681C74.1872 27.9751 73.8656 28.683 73.7006 29.5918C73.6479 29.8717 73.6216 30.0941 73.6216 30.2591C73.6216 30.4217 73.6264 30.5329 73.636 30.5927C73.6455 30.6525 73.6647 30.7087 73.6934 30.7613C73.758 30.8809 73.8548 30.9407 73.984 30.9407C74.1131 30.9407 74.2566 30.8929 74.4144 30.7972C74.5723 30.7015 74.7313 30.57 74.8916 30.4026C75.0542 30.2352 75.2108 30.0391 75.3615 29.8143C75.5146 29.5871 75.6497 29.3443 75.7669 29.086C76.03 28.5144 76.1615 27.9692 76.1615 27.4502C76.1615 27.0508 76.073 26.7124 75.896 26.435C75.8482 26.3632 75.8948 26.2699 76.0359 26.1551C76.1794 26.0356 76.3409 25.9758 76.5202 25.9758C76.757 25.9758 76.9172 26.1862 77.0009 26.6072C77.0296 26.7459 77.044 26.9276 77.044 27.1524C77.044 27.3772 77.0165 27.6248 76.9615 27.895C76.9065 28.1653 76.8287 28.4295 76.7283 28.6878C76.6302 28.9437 76.5131 29.1901 76.3767 29.4268C76.2428 29.6636 76.0957 29.8848 75.9355 30.0905C75.7752 30.2962 75.6054 30.4839 75.4261 30.6537C75.2467 30.8211 75.0638 30.9646 74.8772 31.0842C74.4922 31.3377 74.1274 31.4645 73.7831 31.4645C73.4674 31.4645 73.2318 31.3401 73.0763 31.0914C72.94 30.8761 72.8719 30.6023 72.8719 30.2699C72.8719 29.7198 72.9783 29.1853 73.1911 28.6663C72.9926 28.8887 72.7989 29.1183 72.61 29.3551C72.1412 29.9673 71.8148 30.4062 71.6306 30.6716L71.1607 31.3532Z" fill="white"/>
<path d="M85.2746 26.6466C85.2746 26.4457 85.155 26.3453 84.9159 26.3453C84.4591 26.3453 84.0441 26.5569 83.6711 26.9802C83.451 27.229 83.2968 27.498 83.2083 27.7874C83.1652 27.9285 83.1437 28.0529 83.1437 28.1605C83.1437 28.2681 83.1557 28.3542 83.1796 28.4188C83.2059 28.481 83.2382 28.5324 83.2764 28.573C83.3578 28.6591 83.4522 28.6926 83.5598 28.6735C83.677 28.6257 83.7799 28.6017 83.8684 28.6017C83.9592 28.6017 84.031 28.6137 84.0836 28.6376C84.1386 28.6591 84.1829 28.6866 84.2163 28.7201C84.2857 28.7871 84.3204 28.8517 84.3204 28.9138C84.3204 29.0358 84.2797 29.0992 84.1984 29.104C84.074 29.1159 83.9437 29.1506 83.8074 29.208C83.6711 29.2654 83.5335 29.3407 83.3948 29.434C83.2561 29.5249 83.133 29.6277 83.0253 29.7425C82.779 30.0056 82.6558 30.2699 82.6558 30.5353C82.6558 30.6621 82.6857 30.7577 82.7455 30.8223C82.846 30.9347 82.9655 30.9909 83.1043 30.9909C83.243 30.9909 83.3781 30.9646 83.5096 30.912C83.6436 30.857 83.7643 30.7912 83.8719 30.7147C84.0346 30.5975 84.1924 30.448 84.3455 30.2663C84.422 30.1754 84.489 30.13 84.5464 30.13C84.6038 30.13 84.6468 30.1646 84.6755 30.234C84.7066 30.301 84.7222 30.3727 84.7222 30.4492C84.7222 30.6071 84.6923 30.7243 84.6325 30.8008C84.5727 30.8749 84.4973 30.9503 84.4065 31.0268C84.318 31.1009 84.2116 31.1703 84.0872 31.2349C83.7882 31.3879 83.4678 31.4645 83.1258 31.4645C82.5494 31.4645 82.1548 31.2755 81.9419 30.8977C81.8654 30.7565 81.8271 30.6119 81.8271 30.4636C81.8271 30.3153 81.8487 30.1778 81.8917 30.051C81.9372 29.9243 81.9946 29.8071 82.0639 29.6995C82.1333 29.5895 82.211 29.4914 82.2971 29.4053C82.3832 29.3168 82.4681 29.2403 82.5518 29.1757C82.7168 29.0466 82.8531 28.9736 82.9608 28.9569C82.6905 28.8493 82.5087 28.64 82.4155 28.3291C82.3868 28.2286 82.3724 28.1067 82.3724 27.9632C82.3724 27.8197 82.3999 27.6618 82.4549 27.4896C82.5099 27.3151 82.5877 27.1488 82.6881 26.991C82.7886 26.8308 82.9081 26.6813 83.0469 26.5426C83.1856 26.4039 83.3386 26.2831 83.506 26.1803C83.8672 25.9602 84.2474 25.8502 84.6468 25.8502C85.0653 25.8502 85.3775 25.9543 85.5831 26.1623C85.7481 26.3297 85.8307 26.5438 85.8307 26.8045C85.8307 27.101 85.7063 27.4012 85.4576 27.7049C85.3069 27.8867 85.1706 28.0098 85.0486 28.0744C84.929 28.139 84.8346 28.1748 84.7652 28.182C84.6982 28.1868 84.6349 28.1784 84.5751 28.1569C84.5177 28.133 84.4675 28.1019 84.4244 28.0636C84.3264 27.9751 84.2773 27.895 84.2773 27.8233C84.2773 27.7348 84.3084 27.6666 84.3706 27.6188L84.6935 27.3892C85.0809 27.1046 85.2746 26.8571 85.2746 26.6466Z" fill="white"/>
<path d="M92.8523 30.6143C92.8523 30.2914 92.9444 29.7963 93.1286 29.1291C92.5522 29.1434 92.1109 29.1602 91.8048 29.1793C91.7116 29.3491 91.6267 29.5105 91.5501 29.6636L91.3277 30.1048C91.0335 30.6836 90.7693 31.0651 90.5349 31.2492C90.3555 31.3927 90.1654 31.4645 89.9645 31.4645C89.8114 31.4645 89.6955 31.4142 89.6165 31.3138C89.5878 31.2731 89.5711 31.2349 89.5663 31.199C89.5615 31.1607 89.5699 31.1356 89.5914 31.1237C89.8664 31.0208 90.0901 30.8642 90.2623 30.6537C90.4129 30.4648 90.5636 30.234 90.7143 29.9613L91.1196 29.2367L90.8936 29.269C90.7501 29.2953 90.6784 29.2726 90.6784 29.2008C90.6784 29.1291 90.7214 29.0609 90.8075 28.9963C90.9582 28.8839 91.1053 28.8098 91.2488 28.7739L91.403 28.7381C91.7953 28.0899 92.0942 27.6367 92.2999 27.3784C92.508 27.1201 92.6969 26.9049 92.8667 26.7327C93.0389 26.5605 93.2194 26.4087 93.4084 26.2771C93.8221 25.9925 94.2299 25.8502 94.6317 25.8502C94.7536 25.8502 94.8362 25.8753 94.8792 25.9256C94.951 26.0045 94.9737 26.0894 94.9474 26.1803C94.9211 26.2687 94.878 26.3967 94.8182 26.5641C94.4356 27.6068 94.2024 28.2526 94.1187 28.5013C94.1569 28.4989 94.1916 28.4977 94.2227 28.4977H94.3016C94.5695 28.4977 94.713 28.524 94.7321 28.5766C94.7369 28.5934 94.7393 28.6245 94.7393 28.6699C94.7393 28.7129 94.7249 28.7632 94.6962 28.8206C94.6699 28.878 94.6257 28.927 94.5635 28.9676C94.4368 29.0537 94.2239 29.104 93.925 29.1183C93.7623 29.6803 93.6691 30.069 93.6451 30.2842C93.6236 30.4995 93.6308 30.6453 93.6667 30.7219C93.7049 30.796 93.7576 30.8331 93.8245 30.8331C93.8939 30.8331 93.9501 30.8271 93.9931 30.8151C94.0362 30.8008 94.0744 30.7852 94.1079 30.7685L94.2012 30.7255C94.2251 30.7111 94.249 30.7039 94.2729 30.7039C94.2992 30.7039 94.3208 30.7207 94.3375 30.7542C94.3543 30.7852 94.3626 30.8271 94.3626 30.8797C94.3626 30.9323 94.3399 30.9957 94.2945 31.0698C94.2514 31.1416 94.194 31.2062 94.1223 31.2636C93.9549 31.3975 93.7659 31.4645 93.5555 31.4645C93.2326 31.4645 93.0174 31.321 92.9097 31.034C92.8715 30.9335 92.8523 30.8438 92.8523 30.7649V30.6143ZM92.1349 28.6125C92.5606 28.5575 92.9552 28.5252 93.3187 28.5156C93.3857 28.31 93.4574 28.1067 93.5339 27.9058L93.7564 27.3318C93.8329 27.15 93.9082 26.9779 93.9824 26.8152L94.1904 26.374C93.693 26.5031 93.2015 26.9324 92.716 27.6618C92.6132 27.8149 92.5127 27.9727 92.4147 28.1354L92.1349 28.6125Z" fill="white"/>
<path d="M103.443 27.0879C103.443 26.6119 103.129 26.374 102.5 26.374C102.105 26.374 101.706 26.4936 101.302 26.7327C101.185 26.8021 101.093 26.8666 101.026 26.9264C100.961 26.9838 100.899 27.0125 100.839 27.0125C100.779 27.0125 100.722 26.9982 100.667 26.9695C100.612 26.9384 100.563 26.9001 100.52 26.8547C100.362 26.6801 100.379 26.5115 100.57 26.3489C100.857 26.1025 101.333 25.9435 101.998 25.8717C102.132 25.8574 102.301 25.8502 102.507 25.8502C102.713 25.8502 102.929 25.8873 103.156 25.9614C103.386 26.0356 103.579 26.136 103.734 26.2628C104.045 26.5187 104.2 26.8451 104.2 27.2421C104.2 27.7133 103.985 28.1426 103.555 28.53C103.182 28.8696 102.74 29.1123 102.231 29.2582C102.37 29.373 102.5 29.538 102.622 29.7533L102.909 30.2663C103.16 30.7326 103.385 30.9861 103.583 31.0268C103.653 31.0388 103.724 31.0364 103.799 31.0196C103.873 31.0029 103.921 30.9957 103.942 30.9981C103.966 30.9981 103.982 31.0172 103.989 31.0555C103.998 31.0938 103.989 31.1416 103.96 31.199C103.931 31.2564 103.885 31.3102 103.82 31.3604C103.669 31.48 103.504 31.5326 103.325 31.5183C103.146 31.5063 103 31.4704 102.887 31.4106C102.777 31.3485 102.678 31.2707 102.59 31.1775C102.504 31.0842 102.426 30.9802 102.356 30.8654C102.29 30.7506 102.227 30.6334 102.17 30.5138L102.009 30.1622C101.958 30.0474 101.912 29.9494 101.869 29.8681C101.826 29.7844 101.788 29.709 101.757 29.6421C101.726 29.5727 101.692 29.5105 101.653 29.4555C101.572 29.3312 101.468 29.2522 101.341 29.2188C100.839 30.5102 100.328 31.2468 99.8095 31.4286C99.7664 31.4453 99.7222 31.4537 99.6767 31.4537C99.6337 31.4537 99.5942 31.4453 99.5583 31.4286C99.5225 31.4142 99.4926 31.3951 99.4686 31.3712C99.4184 31.3257 99.3933 31.2755 99.3933 31.2205C99.3933 31.1655 99.4113 31.1249 99.4471 31.0985C99.8059 30.8379 100.204 30.0773 100.642 28.817L100.857 28.2107C101.103 27.5124 101.311 27.0819 101.481 26.9193C101.541 26.8738 101.603 26.8511 101.668 26.8511C101.732 26.8511 101.788 26.8619 101.836 26.8834C101.884 26.9025 101.926 26.9276 101.962 26.9587C102.043 27.0305 102.084 27.1034 102.084 27.1775C102.084 27.2517 102.067 27.3187 102.034 27.3784C102.003 27.4358 101.967 27.5172 101.926 27.6224C101.809 27.9285 101.718 28.1736 101.653 28.3578L101.47 28.8744C101.98 28.8074 102.431 28.6077 102.823 28.2753C103.237 27.9261 103.443 27.5303 103.443 27.0879Z" fill="white"/>
<path d="M48.5406 21.2228H42.449V20.6993H43.3354V8.28036H42.449V7.75687H46.7869V8.28036H45.7748V20.6993H48.0171V18.1324H48.5406V21.2228ZM44.2916 20.6993V8.28036H43.8571V20.6993H44.2916ZM45.2497 20.6993V8.28036H44.8151V20.6993H45.2497Z" fill="#fff"/>
<path d="M107.609 21.2227H103.559V20.6992H104.281V17.5531C104.281 17.2041 104.154 16.9022 103.901 16.6492C103.648 16.3962 103.346 16.2688 102.997 16.2688H101.712V20.6975H102.526V21.221H98.3673V20.6975H99.2712V8.27859H98.3673V7.7551H103.211C104.054 7.7551 104.775 8.05351 105.372 8.65029C105.968 9.24706 106.267 9.97297 106.267 10.828V13.1959C106.267 13.7508 106.122 14.2691 105.832 14.7507C105.543 15.2323 105.157 15.6127 104.675 15.8902C105.29 16.0943 105.79 16.4625 106.176 16.9929C106.586 17.5601 106.79 18.3435 106.79 19.3434C106.79 19.4882 106.787 19.7134 106.782 20.0222C106.775 20.3293 106.773 20.5562 106.773 20.6992H107.605V21.2227H107.609ZM100.233 20.6992V8.28033H99.7982V20.6992H100.233ZM101.191 20.6992V8.28033H100.756V20.6992H101.191ZM103.777 14.4453V9.58207C103.777 9.23308 103.648 8.92771 103.388 8.66946C103.128 8.4112 102.824 8.28033 102.475 8.28033H101.716V15.7471H102.475C102.824 15.7471 103.129 15.6179 103.388 15.3579C103.646 15.0979 103.777 14.7943 103.777 14.4453ZM104.716 14.119V9.90665C104.716 9.41283 104.517 9.04463 104.119 8.80382C104.239 9.03241 104.3 9.29241 104.3 9.58207V14.4453C104.3 14.735 104.239 14.9932 104.119 15.2236C104.517 14.981 104.716 14.6128 104.716 14.119ZM105.295 20.6992V18.5844C105.295 17.6805 105.059 17.047 104.59 16.6858C104.735 16.9144 104.806 17.2041 104.806 17.5531V20.6992H105.295ZM105.747 13.1976V10.8297C105.747 10.1789 105.518 9.60651 105.059 9.11269C105.192 9.37792 105.258 9.64317 105.258 9.9084V14.1207C105.258 14.3493 105.192 14.6216 105.059 14.9339C105.518 14.4383 105.747 13.8607 105.747 13.1976ZM106.253 20.6992V18.8007C106.253 18.0661 105.988 17.4519 105.457 16.9563C105.71 17.4152 105.838 18.1551 105.838 19.1794C105.838 19.3835 105.834 19.6558 105.829 19.9926C105.822 20.3293 105.82 20.5649 105.82 20.6975H106.253V20.6992Z" fill="#fff"/>
<path d="M60.4397 8.27684H59.7522V17.3699C59.7522 18.4308 59.3788 19.3347 58.632 20.0815C57.8729 20.8406 56.9079 21.221 55.7388 21.221C54.6063 21.221 53.6536 20.8633 52.8823 20.1461C52.111 19.4289 51.7254 18.5041 51.7254 17.3716V8.27859H51.0204V7.7551H54.8524V8.27859H54.1648V19.1253C54.1648 19.5598 54.3184 19.9297 54.6255 20.2368C54.9326 20.544 55.3043 20.6975 55.737 20.6975C56.1698 20.6975 56.538 20.544 56.8399 20.2368C57.1417 19.9297 57.2918 19.5598 57.2918 19.1253V8.27859H56.6043V7.7551H60.4363V8.27684H60.4397ZM53.3168 19.8093C52.8823 19.1463 52.6659 18.4413 52.6659 17.6944V8.27684H52.2506V17.3699C52.2506 18.3453 52.6066 19.1585 53.3168 19.8093ZM53.6431 19.3574V8.27684H53.2086V17.6944C53.2086 18.2982 53.3534 18.8513 53.6431 19.3574ZM58.2707 17.6944V8.27684H57.8362V19.1235C57.8362 19.1358 57.8327 19.1689 57.8275 19.223C57.8205 19.2771 57.8188 19.3225 57.8188 19.3591C58.1189 18.8287 58.2707 18.2737 58.2707 17.6944ZM59.2287 17.3699V8.27684H58.7942V17.6944C58.7942 18.4413 58.5778 19.1463 58.1434 19.8093C58.8675 19.1585 59.2287 18.3453 59.2287 17.3699Z" fill="#fff"/>
<path d="M84.1133 8.28035H83.4258V17.3734C83.4258 18.4343 83.0524 19.3382 82.3055 20.085C81.5465 20.8441 80.5815 21.2245 79.4124 21.2245C78.2799 21.2245 77.3272 20.8668 76.5559 20.1496C75.7846 19.4324 75.3989 18.5076 75.3989 17.3751V8.2821H74.694V7.75861H78.526V8.2821H77.8384V19.1288C77.8384 19.5633 77.992 19.9332 78.2991 20.2404C78.6062 20.5475 78.9779 20.701 79.4106 20.701C79.8434 20.701 80.2116 20.5475 80.5135 20.2404C80.8153 19.9332 80.9654 19.5633 80.9654 19.1288V8.2821H80.2779V7.75861H84.1098V8.28035H84.1133ZM76.9904 19.8129C76.5559 19.1498 76.3395 18.4448 76.3395 17.6979V8.28035H75.9242V17.3734C75.9242 18.3488 76.2802 19.162 76.9904 19.8129ZM77.3167 19.3609V8.28035H76.8822V17.6979C76.8822 18.3017 77.027 18.8548 77.3167 19.3609ZM81.9443 17.6979V8.28035H81.5098V19.127C81.5098 19.1393 81.5063 19.1724 81.5011 19.2265C81.4941 19.2806 81.4924 19.326 81.4924 19.3626C81.7925 18.8322 81.9443 18.2773 81.9443 17.6979ZM82.9023 17.3734V8.28035H82.4678V17.6979C82.4678 18.4448 82.2514 19.1498 81.8169 19.8129C82.5411 19.162 82.9023 18.3488 82.9023 17.3734Z" fill="#fff"/>
<path d="M72.2729 21.2228H68.4409V20.6993H69.1285V17.8428C69.1285 17.4083 68.9784 17.0383 68.6765 16.7312C68.3747 16.4241 68.0082 16.2706 67.5737 16.2706C67.1392 16.2706 66.7693 16.4241 66.4621 16.7312C66.155 17.0383 66.0015 17.41 66.0015 17.8428V20.6993H66.689V21.2228H62.8571V20.6993H63.562V19.579C63.562 18.7833 63.7854 18.0609 64.2304 17.41C64.6753 16.7592 65.2669 16.2898 66.0015 16.0001C65.2669 15.7104 64.6753 15.2376 64.2304 14.5815C63.7837 13.9253 63.562 13.2046 63.562 12.4212V8.2821H62.8571V7.75861H66.7797V8.2821H66.0015V14.1731C66.0015 14.6076 66.155 14.9776 66.4621 15.2847C66.7693 15.5918 67.141 15.7453 67.5737 15.7453C68.0065 15.7453 68.3747 15.5918 68.6765 15.2847C68.9784 14.9776 69.1285 14.6076 69.1285 14.1731V8.28036H68.3502V7.75687H72.2729V8.28036H71.5854V12.4194C71.5854 13.2029 71.3603 13.9236 70.9084 14.5797C70.4564 15.2358 69.8631 15.7087 69.1285 15.9983C69.8753 16.288 70.4721 16.7574 70.9188 17.4083C71.3638 18.0592 71.5871 18.7816 71.5871 19.5773V20.6975H72.2746V21.2228H72.2729ZM65.1691 14.8781C64.7346 14.215 64.5183 13.5048 64.5183 12.7457V8.28036H64.0838V12.4194C64.0838 13.3966 64.445 14.215 65.1691 14.8781ZM64.8969 17.3908C64.3542 18.0295 64.0838 18.7589 64.0838 19.579V20.6993H64.5183C64.5183 20.5667 64.5148 20.373 64.5095 20.12C64.5026 19.867 64.5008 19.6802 64.5008 19.5598C64.4991 18.656 64.6317 17.9335 64.8969 17.3908ZM65.4763 14.3912V8.28036H65.0418V12.7457C65.0418 13.3355 65.1866 13.8834 65.4763 14.3912ZM65.5304 17.3542C65.2058 17.8724 65.0418 18.4273 65.0418 19.0171V20.6975H65.4763C65.4763 20.5056 65.4693 20.1915 65.4588 19.757C65.4466 19.3225 65.4414 18.9927 65.4414 18.7624C65.4396 18.1865 65.4693 17.7171 65.5304 17.3542ZM70.0864 20.6993V19.0364C70.0864 18.4099 69.9242 17.8428 69.5979 17.3367C69.6467 17.4815 69.6694 17.6508 69.6694 17.8428V20.6993H70.0864ZM70.0864 12.7457V8.28036H69.6519V14.3912C69.9416 13.8834 70.0864 13.3355 70.0864 12.7457ZM71.0619 12.4194V8.28036H70.6099V10.5034C70.6099 10.6849 70.6152 10.9554 70.6274 11.3166C70.6396 11.6778 70.6449 11.95 70.6449 12.1298C70.6449 13.2989 70.4162 14.215 69.9573 14.8781C70.6937 14.2028 71.0619 13.3844 71.0619 12.4194ZM71.0619 20.6993V19.579C71.0619 18.7589 70.7844 18.0365 70.2313 17.41C70.4965 17.9161 70.6291 18.6158 70.6291 19.5075C70.6291 19.6401 70.6256 19.8425 70.6204 20.113C70.6134 20.3835 70.6117 20.5806 70.6117 20.701H71.0619V20.6993Z" fill="#fff"/>
<path d="M95.95 8.28036H95.2625V12.4194C95.2625 13.2867 95.0024 14.0614 94.4842 14.742C93.9659 15.4225 93.2906 15.8832 92.46 16.1257V20.6993H93.418V21.2228H89.0608V20.6993H90.0188V16.1257C89.1865 15.8849 88.5147 15.4243 88.0034 14.742C87.4904 14.0614 87.2356 13.2867 87.2356 12.4194V8.28036H86.5306V7.75687H90.6522V8.28036H89.6768V14.1731C89.6768 14.6076 89.8304 14.9776 90.1375 15.2847C90.4446 15.5918 90.8163 15.7453 91.249 15.7453C91.6818 15.7453 92.0499 15.5918 92.3518 15.2847C92.6537 14.9776 92.8038 14.6076 92.8038 14.1731V8.28036H91.8458V7.75687H95.95V8.28036V8.28036ZM88.8462 14.8781C88.4117 14.215 88.1953 13.5048 88.1953 12.7457V8.28036H87.7608V12.4194C87.7626 13.3966 88.1238 14.215 88.8462 14.8781ZM89.1533 14.3912V8.28036H88.7188V12.7457C88.7206 13.3355 88.8637 13.8834 89.1533 14.3912ZM90.9786 20.6993V16.2706C90.9175 16.2584 90.8285 16.2531 90.7081 16.2531L90.654 16.2357H90.5458V20.701H90.9786V20.6993ZM91.9383 20.6993V16.2339L91.865 16.2514C91.8039 16.2636 91.7201 16.2688 91.612 16.2688H91.5038V20.6975H91.9383V20.6993ZM93.7635 12.7457V8.28036H93.329V14.3912C93.6187 13.8834 93.7635 13.3355 93.7635 12.7457ZM94.739 12.4194V8.28036H94.287V12.1315C94.287 13.3373 94.0706 14.2534 93.6361 14.8798C94.3725 14.2028 94.739 13.3844 94.739 12.4194Z" fill="#fff"/>
<circle cx="20" cy="20" r="20" fill="#BA8909"/>
<path d="M25.7143 33.4694H13.8776V32.4221H15.6V7.57786H13.8776V6.53061H22.3067V7.57786H20.3401V32.4221H24.6971V27.2871H25.7143V33.4694ZM17.458 32.4221V7.57786H16.6138V32.4221H17.458ZM19.3196 32.4221V7.57786H18.4752V32.4221H19.3196Z" fill="white"/>
</svg>
