<svg width="14" height="14" viewBox="0 0 14 14" fill="none" xmlns="http://www.w3.org/2000/svg">
<path d="M9.91663 1.16699H4.08329C2.47246 1.16699 1.16663 2.47283 1.16663 4.08366V9.91699C1.16663 11.5278 2.47246 12.8337 4.08329 12.8337H9.91663C11.5275 12.8337 12.8333 11.5278 12.8333 9.91699V4.08366C12.8333 2.47283 11.5275 1.16699 9.91663 1.16699Z" stroke="white" stroke-linecap="round" stroke-linejoin="round"/>
<path d="M9.33333 6.63268C9.40532 7.11815 9.32239 7.61397 9.09635 8.0496C8.87031 8.48523 8.51266 8.8385 8.07427 9.05915C7.63589 9.2798 7.13909 9.35661 6.65453 9.27863C6.16998 9.20066 5.72235 8.97189 5.37531 8.62485C5.02828 8.27781 4.7995 7.83018 4.72153 7.34563C4.64356 6.86108 4.72036 6.36428 4.94102 5.92589C5.16167 5.48751 5.51493 5.12986 5.95057 4.90382C6.3862 4.67778 6.88202 4.59485 7.36749 4.66684C7.8627 4.74028 8.32116 4.97103 8.67515 5.32502C9.02914 5.67901 9.25989 6.13747 9.33333 6.63268Z" stroke="white" stroke-linecap="round" stroke-linejoin="round"/>
<path d="M10.2083 3.79199H10.2146" stroke="white" stroke-width="2" stroke-linecap="round" stroke-linejoin="round"/>
</svg>
