<svg width="18" height="12" viewBox="0 0 18 12" fill="none" xmlns="http://www.w3.org/2000/svg">
<g clip-path="url(#clip0_146_5611)">
<path d="M17.6237 1.936C17.5265 1.55633 17.3285 1.20846 17.0498 0.927525C16.7712 0.646592 16.4216 0.442548 16.0364 0.336C14.6291 7.15256e-08 9.00004 0 9.00004 0C9.00004 0 3.37095 2.38419e-08 1.96368 0.368C1.57852 0.474548 1.22893 0.678592 0.950233 0.959525C0.671535 1.24046 0.473595 1.58833 0.376404 1.968C0.118852 3.36444 -0.00713014 4.78105 4.04631e-05 6.2C-0.00914011 7.62964 0.11685 9.05704 0.376404 10.464C0.483553 10.8319 0.685928 11.1665 0.963976 11.4356C1.24203 11.7047 1.58635 11.8991 1.96368 12C3.37095 12.368 9.00004 12.368 9.00004 12.368C9.00004 12.368 14.6291 12.368 16.0364 12C16.4216 11.8935 16.7712 11.6894 17.0498 11.4085C17.3285 11.1275 17.5265 10.7797 17.6237 10.4C17.8792 9.01407 18.0052 7.60827 18 6.2C18.0092 4.77036 17.8832 3.34296 17.6237 1.936V1.936Z" fill="white"/>
<path d="M7.15912 8.81599L11.8637 6.19998L7.15912 3.58398V8.81599Z" fill="#232323"/>
</g>
<defs>
<clipPath id="clip0_146_5611">
<rect width="18" height="12" fill="white"/>
</clipPath>
</defs>
</svg>
