<svg width="10" height="16" viewBox="0 0 10 16" fill="none" xmlns="http://www.w3.org/2000/svg">
<path d="M9.01447 5.60002H6.71077V4.00002C6.71077 3.17442 6.7913 2.65442 8.20918 2.65442H9.04132C9.57051 2.65442 10 2.29603 10 1.85443V0.851228C10 0.432829 9.61558 0.0752305 9.11514 0.0472299C8.5361 0.0144299 7.95609 -0.000770024 7.37513 2.9975e-05C4.77423 2.9975e-05 2.87604 1.32563 2.87604 3.75923V5.60002H0.958682C0.429489 5.60002 0 5.95842 0 6.40002V8.00001C0 8.44161 0.429489 8.80001 0.958682 8.80001L2.87604 8.79922V15.2C2.87604 15.6416 3.30553 16 3.83473 16H5.75209C6.28128 16 6.71077 15.6416 6.71077 15.2V8.79762L8.79494 8.79681C9.28196 8.79681 9.6913 8.49202 9.74691 8.08801L9.96645 6.49122C10.0326 6.01682 9.58777 5.60002 9.01447 5.60002Z" fill="white"/>
</svg>
