<svg width="16" height="13" viewBox="0 0 16 13" fill="none" xmlns="http://www.w3.org/2000/svg">
<path d="M16 1.53851C15.4102 1.80032 14.7779 1.97612 14.1133 2.05591C14.7916 1.64947 15.3128 1.00614 15.5572 0.240625C14.9238 0.6159 14.2193 0.888942 13.4724 1.03606C12.8738 0.397717 12.0208 0 11.0769 0C9.26378 0 7.7936 1.46868 7.7936 3.28148C7.7936 3.53832 7.82353 3.78891 7.87964 4.02954C5.15126 3.89239 2.73337 2.58578 1.11355 0.599693C0.830486 1.08593 0.669626 1.64947 0.669626 2.25041C0.669626 3.3887 1.24822 4.39359 2.12983 4.98331C1.59114 4.96585 1.08487 4.81749 0.642193 4.57188C0.642193 4.58559 0.642193 4.5993 0.642193 4.61302C0.642193 6.2039 1.77445 7.5292 3.27456 7.83217C3.00022 7.90697 2.70968 7.94687 2.41041 7.94687C2.19842 7.94687 1.99267 7.92692 1.79191 7.88702C2.21089 9.18989 3.42295 10.1412 4.85822 10.1674C3.73594 11.0475 2.32062 11.5712 0.781854 11.5712C0.516248 11.5712 0.25563 11.5563 0 11.5251C1.45148 12.4576 3.1773 13 5.03155 13C11.0695 13 14.3714 7.99923 14.3714 3.66298C14.3714 3.52086 14.3677 3.37749 14.3627 3.23785C15.0036 2.77529 15.5598 2.1968 16 1.53851Z" fill="white"/>
</svg>
