<svg width="650" height="470" viewBox="0 0 650 470" fill="none" xmlns="http://www.w3.org/2000/svg">
<g clip-path="url(#clip0_3_91)">
<path d="M454.435 101.889L496.491 37.1977L504.143 65.4156L454.435 101.889Z" fill="#F2ECE1"/>
<path d="M454.435 101.889L504.143 65.4156L528.264 67.4616L454.435 101.889Z" fill="white"/>
<path d="M496.491 37.1977L528.264 67.4616L504.143 65.4156L496.491 37.1977Z" fill="#E4D9C4"/>
<path d="M73.4731 257.428L13.3264 292.537L18.6029 266.692L73.4731 257.428Z" fill="#3F3D3B"/>
<path d="M73.4731 257.428L18.603 266.692L0 255.283L73.4731 257.428Z" fill="black"/>
<path d="M13.3264 292.537L0 255.283L18.603 266.692L13.3264 292.537Z" fill="#6C6A68"/>
<path d="M546.099 324.094L649.269 371.507L609.801 388.628L546.099 324.094Z" fill="#F07500"/>
<path d="M546.099 324.094L609.801 388.628L611.935 424.135L546.099 324.094Z" fill="#F39D00"/>
<path d="M649.269 371.507L611.935 424.135L609.801 388.628L649.269 371.507Z" fill="#F7C43A"/>
<path d="M288.033 105.27L198.688 43.3925L238.752 33.8161L288.033 105.27Z" fill="#F07500"/>
<path d="M288.033 105.27L238.752 33.8161L242.663 6.10352e-05L288.033 105.27Z" fill="#F39D00"/>
<path d="M198.688 43.3925L242.663 6.10352e-05L238.752 33.8161L198.688 43.3925Z" fill="#F7C43A"/>
<path d="M344.396 400.976L335.55 470L318.27 450.066L344.396 400.976Z" fill="#3F3D3B"/>
<path d="M344.396 400.976L318.27 450.066L297.861 457.823L344.396 400.976Z" fill="black"/>
<path d="M335.55 470L297.861 457.823L318.27 450.066L335.55 470Z" fill="#6C6A68"/>
<path d="M195.544 343.574L118.715 459.969L105.232 408.875L195.544 343.574Z" fill="#F2ECE1"/>
<path d="M195.544 343.574L105.232 408.875L61.6685 404.869L195.544 343.574Z" fill="white"/>
<path d="M118.715 459.969L61.6685 404.869L105.232 408.875L118.715 459.969Z" fill="#E4D9C4"/>
</g>
<defs>
<clipPath id="clip0_3_91">
<rect width="649.269" height="470" fill="white"/>
</clipPath>
</defs>
</svg>
