<svg width="19" height="19" viewBox="0 0 19 19" fill="none" xmlns="http://www.w3.org/2000/svg">
<path d="M9.296 1C14.1045 1 18 4.80545 18 9.5C18 14.1946 14.1036 18 9.296 18C6.58365 18 4.0753 16.7786 2.4365 14.7309C2.39056 14.6737 2.35658 14.6079 2.33659 14.5373C2.3166 14.4667 2.31099 14.3928 2.32011 14.32C2.32923 14.2473 2.35288 14.177 2.38967 14.1136C2.42646 14.0501 2.47562 13.9947 2.53425 13.9506C2.6538 13.8596 2.80407 13.8188 2.95321 13.8367C3.10236 13.8547 3.23866 13.93 3.33325 14.0466C4.75955 15.8274 6.93725 16.8882 9.29685 16.8882C13.4746 16.8882 16.8618 13.58 16.8618 9.5C16.8618 5.42 13.4746 2.1118 9.29685 2.1118C8.16959 2.10747 7.05541 2.3534 6.03472 2.83185C5.01402 3.3103 4.11224 4.00935 3.39445 4.87855C3.29836 4.99419 3.161 5.06783 3.01151 5.08386C2.86202 5.09989 2.71217 5.05704 2.59375 4.9644C2.53563 4.91954 2.48713 4.86346 2.45113 4.79947C2.41513 4.73549 2.39237 4.66492 2.3842 4.59196C2.37603 4.519 2.38262 4.44514 2.40358 4.37478C2.42454 4.30442 2.45944 4.239 2.5062 4.1824C4.14755 2.1849 6.62275 1 9.29685 1H9.296ZM9.75925 6.8327L12.0602 9.13365C12.2829 9.35635 12.2872 9.71165 12.0696 9.92925L9.823 12.1775C9.77012 12.2292 9.70756 12.2701 9.6389 12.2976C9.57023 12.3251 9.49681 12.3389 9.42284 12.338C9.34886 12.3371 9.27578 12.3217 9.20778 12.2925C9.13978 12.2634 9.0782 12.2211 9.02655 12.1681C8.97364 12.1164 8.93144 12.0548 8.90237 11.9868C8.8733 11.9188 8.85793 11.8457 8.85714 11.7717C8.85635 11.6977 8.87016 11.6243 8.89777 11.5557C8.92538 11.487 8.96625 11.4245 9.01805 11.3717L10.333 10.0559L1.5695 10.0568C1.49553 10.0576 1.42211 10.044 1.35345 10.0164C1.28478 9.98895 1.2222 9.94817 1.16931 9.89646C1.11641 9.84475 1.07423 9.78312 1.04518 9.71509C1.01613 9.64706 1.00078 9.57397 1 9.5C1 9.19315 1.255 8.9441 1.5695 8.9441H10.2973L8.973 7.61895C8.92009 7.56725 8.87789 7.50562 8.84882 7.43759C8.81975 7.36956 8.80438 7.29646 8.80359 7.22249C8.8028 7.14851 8.81661 7.07511 8.84422 7.00647C8.87183 6.93784 8.9127 6.87532 8.9645 6.8225C9.07122 6.71852 9.21482 6.66111 9.36381 6.66286C9.5128 6.66461 9.65501 6.72539 9.75925 6.83185V6.8327Z" fill="#444444" stroke="#444444" stroke-width="0.2"/>
</svg>
