<svg width="248" height="248" viewBox="0 0 248 248" fill="none" xmlns="http://www.w3.org/2000/svg">
<circle cx="124" cy="124" r="122.5" stroke="#FFD700" stroke-width="3"/>
<circle cx="124" cy="124" r="117.73" fill="#FFD700"/>
<path d="M94.2041 147.681C94.2041 147.079 93.846 146.778 93.1299 146.778C91.762 146.778 90.5195 147.412 89.4023 148.68C88.7435 149.424 88.2816 150.23 88.0166 151.097C87.8877 151.519 87.8232 151.892 87.8232 152.214C87.8232 152.536 87.859 152.794 87.9307 152.987C88.0094 153.174 88.1061 153.327 88.2207 153.449C88.4642 153.707 88.7471 153.807 89.0693 153.75C89.4202 153.607 89.7282 153.535 89.9932 153.535C90.2653 153.535 90.4801 153.571 90.6377 153.643C90.8024 153.707 90.9349 153.789 91.0352 153.89C91.2428 154.09 91.3467 154.284 91.3467 154.47C91.3467 154.835 91.2249 155.025 90.9814 155.039C90.609 155.075 90.2188 155.179 89.8105 155.351C89.4023 155.522 88.9906 155.748 88.5752 156.027C88.1598 156.299 87.791 156.607 87.4688 156.951C86.7311 157.739 86.3623 158.53 86.3623 159.325C86.3623 159.705 86.4518 159.991 86.6309 160.185C86.9316 160.521 87.2897 160.689 87.7051 160.689C88.1204 160.689 88.5251 160.611 88.9189 160.453C89.32 160.288 89.6816 160.091 90.0039 159.862C90.4909 159.511 90.9635 159.064 91.4219 158.52C91.651 158.247 91.8516 158.111 92.0234 158.111C92.1953 158.111 92.3242 158.215 92.4102 158.423C92.5033 158.623 92.5498 158.838 92.5498 159.067C92.5498 159.54 92.4603 159.891 92.2812 160.12C92.1022 160.342 91.8766 160.568 91.6045 160.797C91.3395 161.019 91.0208 161.227 90.6484 161.42C89.7533 161.878 88.7936 162.107 87.7695 162.107C86.0436 162.107 84.862 161.542 84.2246 160.41C83.9954 159.988 83.8809 159.554 83.8809 159.11C83.8809 158.666 83.9453 158.255 84.0742 157.875C84.2103 157.495 84.3822 157.145 84.5898 156.822C84.7975 156.493 85.0303 156.199 85.2881 155.941C85.5459 155.676 85.8001 155.447 86.0508 155.254C86.5449 154.867 86.9531 154.649 87.2754 154.599C86.4661 154.276 85.9219 153.65 85.6426 152.719C85.5566 152.418 85.5137 152.053 85.5137 151.623C85.5137 151.193 85.596 150.721 85.7607 150.205C85.9255 149.682 86.1582 149.185 86.459 148.712C86.7598 148.232 87.1178 147.785 87.5332 147.369C87.9486 146.954 88.4069 146.592 88.9082 146.284C89.9896 145.625 91.1283 145.296 92.3242 145.296C93.5775 145.296 94.512 145.607 95.1279 146.23C95.6221 146.732 95.8691 147.373 95.8691 148.153C95.8691 149.041 95.4967 149.94 94.752 150.85C94.3008 151.394 93.8926 151.763 93.5273 151.956C93.1693 152.149 92.8864 152.257 92.6787 152.278C92.4782 152.293 92.2884 152.268 92.1094 152.203C91.9375 152.132 91.7871 152.038 91.6582 151.924C91.3646 151.659 91.2178 151.419 91.2178 151.204C91.2178 150.939 91.3109 150.735 91.4971 150.592L92.4639 149.904C93.624 149.052 94.2041 148.311 94.2041 147.681ZM94.9668 160.958C94.8809 160.722 94.8379 160.453 94.8379 160.152C94.8379 159.844 94.888 159.504 94.9883 159.132C95.0957 158.752 95.2318 158.358 95.3965 157.95C95.5612 157.542 95.7402 157.123 95.9336 156.693L96.5137 155.404C97.2585 153.75 97.5342 152.769 97.3408 152.461C97.2549 152.325 97.0938 152.189 96.8574 152.053C96.7715 152.003 96.7285 151.917 96.7285 151.795C96.7285 151.666 96.7786 151.544 96.8789 151.43C96.9863 151.315 97.1224 151.215 97.2871 151.129C97.638 150.964 97.9889 150.882 98.3398 150.882C98.6908 150.882 98.9557 150.921 99.1348 151C99.321 151.072 99.4714 151.165 99.5859 151.279C99.8223 151.516 99.9404 151.777 99.9404 152.063C99.9404 152.35 99.8939 152.672 99.8008 153.03C99.7077 153.381 99.5859 153.764 99.4355 154.18C99.2852 154.595 99.1204 155.025 98.9414 155.469C98.4473 156.629 98.1143 157.395 97.9424 157.768L97.5449 158.595C97.3229 159.089 97.2119 159.436 97.2119 159.637C97.2119 159.837 97.2441 159.98 97.3086 160.066C97.373 160.145 97.4876 160.185 97.6523 160.185C97.8242 160.185 98.0104 160.12 98.2109 159.991C98.4186 159.862 98.6406 159.69 98.877 159.476C99.1133 159.261 99.3568 159.014 99.6074 158.734C99.8652 158.448 100.116 158.151 100.359 157.843C100.997 157.055 101.469 156.378 101.777 155.812C103.324 152.962 104.144 151.473 104.237 151.344C104.474 151.036 104.71 150.882 104.946 150.882C105.19 150.882 105.401 150.91 105.58 150.968C105.759 151.018 105.913 151.093 106.042 151.193C106.328 151.401 106.414 151.634 106.3 151.892C106.192 152.149 106.06 152.504 105.902 152.955C104.542 156.901 103.657 159.361 103.249 160.335C102.848 161.309 102.497 162.09 102.196 162.677C101.896 163.271 101.541 163.869 101.133 164.471C100.732 165.072 100.302 165.62 99.8438 166.114C98.7982 167.231 97.8171 167.829 96.9004 167.908C96.5495 167.937 96.2702 167.887 96.0625 167.758C95.7044 167.543 95.5254 167.339 95.5254 167.146C95.5254 166.952 95.6865 166.816 96.0088 166.737C96.3382 166.666 96.6748 166.515 97.0186 166.286C97.3695 166.064 97.7061 165.803 98.0283 165.502C98.9736 164.6 99.7077 163.618 100.23 162.559C100.674 161.628 101.033 160.747 101.305 159.916L102.143 157.359C101.935 157.61 101.706 157.904 101.455 158.24L100.682 159.271C100.008 160.124 99.4499 160.729 99.0059 161.087C98.1608 161.767 97.4053 162.107 96.7393 162.107C95.8512 162.107 95.2604 161.724 94.9668 160.958ZM107.191 158.24C107.22 157.617 107.324 157.023 107.503 156.457C107.682 155.884 107.922 155.333 108.223 154.803C108.523 154.266 108.874 153.761 109.275 153.288C109.684 152.808 110.124 152.389 110.597 152.031C111.621 151.265 112.656 150.882 113.701 150.882C114.926 150.882 115.742 151.387 116.15 152.396C116.294 152.74 116.362 153.148 116.354 153.621C116.347 154.087 116.258 154.52 116.086 154.921C115.914 155.315 115.674 155.676 115.366 156.006C115.065 156.328 114.704 156.618 114.281 156.876C113.866 157.134 113.411 157.352 112.917 157.531C111.9 157.889 110.812 158.076 109.651 158.09C109.623 158.19 109.605 158.34 109.598 158.541C109.59 158.742 109.612 158.967 109.662 159.218C109.712 159.461 109.798 159.68 109.92 159.873C110.178 160.303 110.55 160.518 111.037 160.518C111.868 160.518 112.677 160.274 113.465 159.787C113.744 159.622 113.97 159.454 114.142 159.282C114.321 159.103 114.475 159.014 114.604 159.014C114.732 159.014 114.843 159.092 114.937 159.25C115.037 159.4 115.087 159.572 115.087 159.766C115.087 160.145 114.979 160.475 114.765 160.754C113.862 161.656 112.52 162.107 110.736 162.107C109.684 162.107 108.839 161.792 108.201 161.162C107.485 160.446 107.148 159.472 107.191 158.24ZM113.465 152.311C112.713 152.311 111.99 152.826 111.295 153.857C110.708 154.745 110.235 155.798 109.877 157.016C111.073 156.894 112.111 156.421 112.992 155.598C113.801 154.824 114.206 154.083 114.206 153.374C114.206 152.665 113.959 152.311 113.465 152.311ZM121.017 160.775C120.043 161.635 119.276 162.064 118.718 162.064C118.166 162.064 117.783 161.778 117.568 161.205C117.49 161.005 117.45 160.818 117.45 160.646C117.45 160.181 117.522 159.73 117.665 159.293C117.815 158.856 117.962 158.448 118.105 158.068L119.051 155.63C119.416 154.634 119.638 153.94 119.717 153.546C119.796 153.152 119.785 152.887 119.685 152.751C119.584 152.608 119.466 152.486 119.33 152.386C119.201 152.278 119.076 152.185 118.954 152.106C118.84 152.021 118.782 151.917 118.782 151.795C118.782 151.666 118.832 151.544 118.933 151.43C119.04 151.315 119.18 151.215 119.352 151.129C119.695 150.964 120.05 150.882 120.415 150.882C120.787 150.882 121.077 150.921 121.285 151C121.5 151.072 121.675 151.165 121.812 151.279C122.076 151.516 122.209 151.802 122.209 152.139C122.209 152.468 122.152 152.84 122.037 153.256C121.93 153.671 121.79 154.112 121.618 154.577C121.453 155.043 121.267 155.526 121.06 156.027L120.469 157.51C120.003 158.706 119.72 159.601 119.62 160.195C120.293 159.966 121.185 159.143 122.295 157.725C123.505 156.171 124.576 154.398 125.507 152.407C125.614 152.157 125.747 151.995 125.904 151.924C126.162 151.802 126.488 151.748 126.882 151.763C127.505 151.784 127.827 151.978 127.849 152.343C127.863 152.565 127.802 152.812 127.666 153.084C127.537 153.349 127.43 153.571 127.344 153.75L126.925 154.609C126.087 156.307 125.668 157.685 125.668 158.745C125.668 159.483 125.868 159.988 126.27 160.26C126.384 160.346 126.56 160.389 126.796 160.389C127.032 160.389 127.312 160.306 127.634 160.142C127.956 159.97 128.264 159.737 128.558 159.443C128.851 159.15 129.123 158.81 129.374 158.423C129.632 158.029 129.854 157.61 130.04 157.166C130.434 156.228 130.631 155.397 130.631 154.674C130.631 153.435 130.398 152.522 129.933 151.935C129.775 151.748 129.822 151.53 130.072 151.279C130.337 151.014 130.753 150.882 131.318 150.882C132.013 150.882 132.486 151.272 132.736 152.053C132.837 152.346 132.887 152.787 132.887 153.374C132.887 153.961 132.783 154.617 132.575 155.34C132.368 156.056 132.085 156.747 131.727 157.413C131.376 158.072 130.967 158.688 130.502 159.261C130.044 159.834 129.56 160.331 129.052 160.754C127.963 161.656 126.953 162.107 126.022 162.107C124.425 162.107 123.627 161.076 123.627 159.014C123.627 158.541 123.67 158.079 123.756 157.628C122.911 158.86 121.998 159.909 121.017 160.775ZM134.09 158.24C134.118 157.617 134.222 157.023 134.401 156.457C134.58 155.884 134.82 155.333 135.121 154.803C135.422 154.266 135.773 153.761 136.174 153.288C136.582 152.808 137.022 152.389 137.495 152.031C138.519 151.265 139.554 150.882 140.6 150.882C141.824 150.882 142.641 151.387 143.049 152.396C143.192 152.74 143.26 153.148 143.253 153.621C143.246 154.087 143.156 154.52 142.984 154.921C142.812 155.315 142.573 155.676 142.265 156.006C141.964 156.328 141.602 156.618 141.18 156.876C140.764 157.134 140.31 157.352 139.815 157.531C138.799 157.889 137.71 158.076 136.55 158.09C136.521 158.19 136.503 158.34 136.496 158.541C136.489 158.742 136.51 158.967 136.561 159.218C136.611 159.461 136.697 159.68 136.818 159.873C137.076 160.303 137.449 160.518 137.936 160.518C138.766 160.518 139.576 160.274 140.363 159.787C140.643 159.622 140.868 159.454 141.04 159.282C141.219 159.103 141.373 159.014 141.502 159.014C141.631 159.014 141.742 159.092 141.835 159.25C141.935 159.4 141.985 159.572 141.985 159.766C141.985 160.145 141.878 160.475 141.663 160.754C140.761 161.656 139.418 162.107 137.635 162.107C136.582 162.107 135.737 161.792 135.1 161.162C134.383 160.446 134.047 159.472 134.09 158.24ZM140.363 152.311C139.611 152.311 138.888 152.826 138.193 153.857C137.606 154.745 137.133 155.798 136.775 157.016C137.971 156.894 139.01 156.421 139.891 155.598C140.7 154.824 141.104 154.083 141.104 153.374C141.104 152.665 140.857 152.311 140.363 152.311ZM152.652 159.143C152.652 159.801 152.885 160.131 153.351 160.131C153.673 160.131 153.938 160.081 154.146 159.98C154.36 159.88 154.504 159.83 154.575 159.83C154.726 159.83 154.801 159.909 154.801 160.066C154.801 160.682 154.479 161.212 153.834 161.656C153.154 162.122 152.459 162.236 151.75 162C151.285 161.835 150.941 161.481 150.719 160.937C150.611 160.657 150.558 160.403 150.558 160.174C150.558 159.801 150.593 159.408 150.665 158.992C149.999 160.353 149.172 161.291 148.184 161.807C147.79 162.007 147.371 162.107 146.927 162.107C146.483 162.107 146.096 162.018 145.767 161.839C145.444 161.653 145.169 161.398 144.939 161.076C144.474 160.403 144.263 159.558 144.306 158.541C144.349 157.266 144.725 156.017 145.434 154.792C146.085 153.646 146.909 152.712 147.904 151.988C148.9 151.251 149.831 150.882 150.697 150.882C151.564 150.882 152.262 151.279 152.792 152.074C153.286 151.279 153.723 150.882 154.103 150.882C154.511 150.882 154.819 150.957 155.026 151.107C155.42 151.394 155.56 151.645 155.445 151.859C153.648 155.54 152.724 157.832 152.674 158.734C152.66 158.863 152.652 158.999 152.652 159.143ZM146.69 159.186C146.69 160.045 146.966 160.475 147.518 160.475C147.94 160.475 148.459 160.117 149.075 159.4C149.978 158.348 150.776 156.93 151.471 155.146C151.693 154.588 151.879 154.029 152.029 153.471C152.001 152.984 151.797 152.626 151.417 152.396C151.288 152.318 151.095 152.278 150.837 152.278C150.586 152.278 150.289 152.371 149.945 152.558C149.609 152.744 149.279 152.998 148.957 153.32C148.642 153.643 148.345 154.026 148.065 154.47C147.793 154.907 147.553 155.383 147.346 155.898C146.909 157.001 146.69 158.097 146.69 159.186ZM156.326 161.742C156.183 161.635 156.068 161.517 155.982 161.388C155.896 161.252 155.85 161.137 155.843 161.044C155.836 160.944 155.854 160.826 155.896 160.689C155.947 160.546 156.011 160.374 156.09 160.174C157.551 156.579 158.281 154.165 158.281 152.934C158.26 152.59 158.142 152.346 157.927 152.203L157.712 152.053C157.647 152.003 157.612 151.917 157.604 151.795C157.604 151.666 157.651 151.544 157.744 151.43C157.837 151.315 157.959 151.215 158.109 151.129C158.417 150.964 158.732 150.882 159.055 150.882C159.384 150.882 159.638 150.918 159.817 150.989C160.004 151.061 160.161 151.158 160.29 151.279C160.562 151.537 160.698 151.809 160.698 152.096C160.705 152.382 160.673 152.672 160.602 152.966C160.537 153.259 160.458 153.549 160.365 153.836C160.272 154.115 160.179 154.384 160.086 154.642C159.993 154.892 159.932 155.078 159.903 155.2C159.846 155.451 159.825 155.608 159.839 155.673C160.011 155.522 160.115 155.376 160.15 155.232L160.569 154.438C161.5 152.762 162.41 151.652 163.298 151.107C163.556 150.957 163.864 150.882 164.222 150.882C164.587 150.882 164.881 151.011 165.103 151.269C165.325 151.519 165.439 151.799 165.446 152.106C165.461 152.414 165.439 152.672 165.382 152.88C165.332 153.08 165.253 153.27 165.146 153.449C164.909 153.85 164.623 154.051 164.286 154.051C164.193 154.051 164.107 154.019 164.028 153.954L163.792 153.75C163.556 153.542 163.326 153.438 163.104 153.438C162.89 153.438 162.625 153.582 162.31 153.868C162.002 154.155 161.679 154.523 161.343 154.975C160.211 156.471 159.287 158.147 158.571 160.002L158.099 161.248C157.977 161.556 157.869 161.778 157.776 161.914C157.683 162.043 157.544 162.107 157.357 162.107C157.178 162.107 156.996 162.072 156.81 162C156.631 161.936 156.469 161.85 156.326 161.742Z" fill="black"/>
<path d="M41.1162 132.996H26.1917V131.713H28.3634V101.287H26.1917V100.004H36.8197V101.287H34.34V131.713H39.8337V125.424H41.1162V132.996ZM30.7061 131.713V101.287H29.6416V131.713H30.7061ZM33.0533 131.713V101.287H31.9887V131.713H33.0533Z" fill="black"/>
<path d="M185.788 132.996H175.865V131.713H177.635V124.005C177.635 123.15 177.323 122.41 176.703 121.791C176.083 121.171 175.344 120.859 174.489 120.859H171.342V131.709H173.334V132.991H163.146V131.709H165.361V101.283H163.146V100H175.014C177.079 100 178.845 100.731 180.307 102.193C181.769 103.655 182.5 105.434 182.5 107.529V113.33C182.5 114.689 182.145 115.959 181.436 117.139C180.726 118.319 179.781 119.251 178.601 119.931C180.106 120.431 181.333 121.333 182.278 122.633C183.283 124.022 183.783 125.942 183.783 128.391C183.783 128.746 183.774 129.298 183.761 130.054C183.744 130.807 183.74 131.363 183.74 131.713H185.779V132.996H185.788ZM167.717 131.713V101.287H166.652V131.713H167.717ZM170.064 131.713V101.287H168.999V131.713H170.064ZM176.4 116.391V104.476C176.4 103.621 176.083 102.873 175.446 102.24C174.809 101.607 174.065 101.287 173.21 101.287H171.351V119.58H173.21C174.065 119.58 174.813 119.264 175.446 118.627C176.079 117.99 176.4 117.246 176.4 116.391ZM178.7 115.592V105.271C178.7 104.061 178.212 103.159 177.237 102.569C177.532 103.129 177.682 103.766 177.682 104.476V116.391C177.682 117.101 177.532 117.733 177.237 118.298C178.212 117.703 178.7 116.801 178.7 115.592ZM180.119 131.713V126.532C180.119 124.317 179.542 122.765 178.392 121.88C178.747 122.44 178.922 123.15 178.922 124.005V131.713H180.119ZM181.226 113.334V107.533C181.226 105.938 180.666 104.536 179.542 103.326C179.867 103.976 180.029 104.626 180.029 105.276V115.596C180.029 116.156 179.867 116.823 179.542 117.588C180.666 116.374 181.226 114.959 181.226 113.334ZM182.466 131.713V127.062C182.466 125.262 181.816 123.757 180.517 122.543C181.136 123.667 181.449 125.48 181.449 127.99C181.449 128.49 181.44 129.157 181.427 129.982C181.41 130.807 181.406 131.384 181.406 131.709H182.466V131.713Z" fill="black"/>
<path d="M77.4126 101.287H75.7282V123.565C75.7282 126.164 74.8133 128.379 72.9835 130.208C71.1238 132.068 68.7596 133 65.8953 133C63.1207 133 60.7865 132.124 58.8969 130.367C57.0073 128.609 56.0624 126.344 56.0624 123.569V101.291H54.3352V100.009H63.7236V101.291H62.0391V127.866C62.0391 128.93 62.4153 129.836 63.1678 130.589C63.9202 131.341 64.8308 131.717 65.891 131.717C66.9512 131.717 67.8533 131.341 68.5929 130.589C69.3325 129.836 69.7002 128.93 69.7002 127.866V101.291H68.0157V100.009H77.4041V101.287H77.4126ZM59.9614 129.541C58.8969 127.917 58.3668 126.19 58.3668 124.36V101.287H57.3492V123.565C57.3492 125.955 58.2214 127.947 59.9614 129.541ZM60.7608 128.434V101.287H59.6963V124.36C59.6963 125.839 60.0511 127.194 60.7608 128.434ZM72.0985 124.36V101.287H71.034V127.861C71.034 127.891 71.0255 127.972 71.0126 128.105C70.9955 128.237 70.9913 128.349 70.9913 128.438C71.7267 127.139 72.0985 125.779 72.0985 124.36ZM74.4456 123.565V101.287H73.3811V124.36C73.3811 126.19 72.851 127.917 71.7865 129.541C73.5607 127.947 74.4456 125.955 74.4456 123.565Z" fill="black"/>
<path d="M150.09 101.287H148.406V123.565C148.406 126.164 147.491 128.379 145.661 130.208C143.802 132.068 141.437 133 138.573 133C135.798 133 133.464 132.124 131.575 130.367C129.685 128.609 128.74 126.344 128.74 123.569V101.291H127.013V100.009H136.401V101.291H134.717V127.866C134.717 128.93 135.093 129.836 135.846 130.589C136.598 131.341 137.508 131.717 138.569 131.717C139.629 131.717 140.531 131.341 141.271 130.589C142.01 129.836 142.378 128.93 142.378 127.866V101.291H140.693V100.009H150.082V101.287H150.09ZM132.639 129.541C131.575 127.917 131.044 126.19 131.044 124.36V101.287H130.027V123.565C130.027 125.955 130.899 127.947 132.639 129.541ZM133.439 128.434V101.287H132.374V124.36C132.374 125.839 132.729 127.194 133.439 128.434ZM144.776 124.36V101.287H143.712V127.861C143.712 127.891 143.703 127.972 143.69 128.105C143.673 128.237 143.669 128.349 143.669 128.438C144.404 127.139 144.776 125.779 144.776 124.36ZM147.123 123.565V101.287H146.059V124.36C146.059 126.19 145.529 127.917 144.464 129.541C146.238 127.947 147.123 125.955 147.123 123.565Z" fill="black"/>
<path d="M113.563 132.996H104.175V131.713H105.86V124.715C105.86 123.65 105.492 122.744 104.752 121.991C104.013 121.239 103.115 120.863 102.05 120.863C100.986 120.863 100.08 121.239 99.3271 121.991C98.5747 122.744 98.1985 123.655 98.1985 124.715V131.713H99.8829V132.996H90.4946V131.713H92.2218V128.969C92.2218 127.019 92.7691 125.249 93.8592 123.655C94.9494 122.06 96.3986 120.91 98.1985 120.2C96.3986 119.49 94.9494 118.332 93.8592 116.725C92.7648 115.117 92.2218 113.351 92.2218 111.432V101.291H90.4946V100.009H100.105V101.291H98.1985V115.724C98.1985 116.789 98.5747 117.695 99.3271 118.447C100.08 119.2 100.99 119.576 102.05 119.576C103.111 119.576 104.013 119.2 104.752 118.447C105.492 117.695 105.86 116.789 105.86 115.724V101.287H103.953V100.004H113.563V101.287H111.879V111.428C111.879 113.347 111.328 115.113 110.22 116.72C109.113 118.328 107.659 119.486 105.86 120.196C107.689 120.906 109.151 122.056 110.246 123.65C111.336 125.245 111.883 127.015 111.883 128.964V131.709H113.568V132.996H113.563ZM96.1592 117.451C95.0947 115.827 94.5646 114.087 94.5646 112.227V101.287H93.5001V111.428C93.5001 113.822 94.385 115.827 96.1592 117.451ZM95.4923 123.607C94.1627 125.172 93.5001 126.959 93.5001 128.969V131.713H94.5646C94.5646 131.388 94.556 130.914 94.5432 130.294C94.5261 129.674 94.5218 129.217 94.5218 128.922C94.5175 126.707 94.8425 124.937 95.4923 123.607ZM96.9117 116.258V101.287H95.8471V112.227C95.8471 113.672 96.202 115.014 96.9117 116.258ZM97.0442 123.518C96.249 124.787 95.8471 126.147 95.8471 127.592V131.709H96.9117C96.9117 131.239 96.8945 130.469 96.8689 129.405C96.8389 128.34 96.8262 127.532 96.8262 126.968C96.8219 125.557 96.8946 124.407 97.0442 123.518ZM108.207 131.713V127.639C108.207 126.104 107.809 124.715 107.01 123.475C107.129 123.83 107.185 124.245 107.185 124.715V131.713H108.207ZM108.207 112.227V101.287H107.142V116.258C107.852 115.014 108.207 113.672 108.207 112.227ZM110.596 111.428V101.287H109.489V106.733C109.489 107.178 109.502 107.841 109.532 108.726C109.562 109.611 109.575 110.278 109.575 110.718C109.575 113.582 109.015 115.827 107.89 117.451C109.694 115.797 110.596 113.792 110.596 111.428ZM110.596 131.713V128.969C110.596 126.959 109.917 125.189 108.561 123.655C109.211 124.894 109.536 126.609 109.536 128.793C109.536 129.118 109.528 129.614 109.515 130.277C109.498 130.939 109.493 131.422 109.493 131.717H110.596V131.713Z" fill="black"/>
<path d="M222.084 101.287H220.4V111.428C220.4 113.552 219.763 115.45 218.493 117.118C217.223 118.785 215.569 119.914 213.534 120.508V131.713H215.881V132.996H205.206V131.713H207.553V120.508C205.514 119.918 203.868 118.789 202.615 117.118C201.358 115.45 200.734 113.552 200.734 111.428V101.287H199.007V100.004H209.105V101.287H206.715V115.724C206.715 116.789 207.091 117.695 207.844 118.447C208.596 119.2 209.507 119.576 210.567 119.576C211.627 119.576 212.529 119.2 213.269 118.447C214.008 117.695 214.376 116.789 214.376 115.724V101.287H212.029V100.004H222.084V101.287ZM204.68 117.451C203.615 115.827 203.085 114.087 203.085 112.227V101.287H202.021V111.428C202.025 113.822 202.91 115.827 204.68 117.451ZM205.432 116.258V101.287H204.368V112.227C204.372 113.672 204.723 115.014 205.432 116.258ZM209.904 131.713V120.863C209.755 120.833 209.537 120.82 209.242 120.82L209.109 120.777H208.844V131.717H209.904V131.713ZM212.256 131.713V120.773L212.076 120.816C211.926 120.846 211.721 120.859 211.456 120.859H211.191V131.709H212.256V131.713ZM216.727 112.227V101.287H215.663V116.258C216.373 115.014 216.727 113.672 216.727 112.227ZM219.117 111.428V101.287H218.01V110.722C218.01 113.676 217.48 115.921 216.415 117.456C218.219 115.797 219.117 113.792 219.117 111.428Z" fill="black"/>
</svg>
