<svg width="401" height="107" viewBox="0 0 401 107" fill="none" xmlns="http://www.w3.org/2000/svg">
<path d="M39.8201 105.356L39.8648 105.11L39.8605 105.109L39.8201 105.356ZM25.8873 101.733L25.7945 101.965L25.799 101.967L25.8873 101.733ZM15.1591 96.2995L14.9379 96.183L14.832 96.3839L15.0219 96.5086L15.1591 96.2995ZM26.0266 75.679L26.157 75.4657L25.9297 75.3268L25.8055 75.5624L26.0266 75.679ZM36.3369 80.9734L36.2399 81.204L36.2472 81.2068L36.3369 80.9734ZM47.3438 84.178L47.2948 84.4231L47.3438 84.178ZM67.5464 84.3173L67.6092 84.5595L67.6174 84.557L67.5464 84.3173ZM73.2589 81.2521L73.0821 81.0753L73.2589 81.2521ZM72.5622 72.0565L72.4158 72.2591L72.4221 72.2637L72.4287 72.2678L72.5622 72.0565ZM65.8745 68.9912L65.8026 69.2307L65.8745 68.9912ZM56.5395 66.4833L56.4725 66.7243L56.4804 66.7263L56.5395 66.4833ZM46.3685 63.2788L46.2779 63.5119L46.2857 63.5147L46.3685 63.2788ZM37.1729 58.5416L37.0295 58.7465L37.0342 58.7496L37.1729 58.5416ZM30.3458 51.1572L30.1279 51.2798L30.1309 51.2849L30.3458 51.1572ZM49.7124 9.63749L49.618 9.406L49.6169 9.40644L49.7124 9.63749ZM94.1581 7.54757L94.0983 7.79035L94.1019 7.79116L94.1581 7.54757ZM109.763 13.678L109.987 13.788L110.087 13.5843L109.894 13.4652L109.763 13.678ZM99.7312 34.1592L99.5973 34.3703L99.833 34.5198L99.9557 34.2692L99.7312 34.1592ZM87.0523 28.7254L86.9836 28.9659L86.9894 28.9674L87.0523 28.7254ZM63.3666 28.0288L63.2925 27.79L63.2901 27.7908L63.3666 28.0288ZM57.3755 31.512L57.1931 31.341L57.1927 31.3414L57.3755 31.512ZM57.9328 40.847L58.0791 40.6443L57.9328 40.847ZM64.6205 43.9122L64.5487 44.1517L64.5508 44.1523L64.6205 43.9122ZM73.9555 46.5594L73.8885 46.8004L73.8964 46.8023L73.9555 46.5594ZM84.1264 49.6246L84.0415 49.8598L84.0474 49.8618L84.1264 49.6246ZM93.4614 54.2225L93.3212 54.4295L93.3259 54.4325L93.4614 54.2225ZM100.288 61.3282L100.072 61.4537L100.288 61.3282ZM97.084 90.3084L97.2857 90.4561L97.084 90.3084ZM80.7826 102.43L80.877 102.661L80.7826 102.43ZM97.9841 104.799L97.7737 104.664L97.5268 105.049H97.9841V104.799ZM160.542 7.26891V7.01891H160.406L160.332 7.13393L160.542 7.26891ZM187.711 7.26891L187.954 7.21023L187.908 7.01891H187.711V7.26891ZM211.258 104.799V105.049H211.575L211.501 104.74L211.258 104.799ZM183.81 104.799L183.565 104.849L183.607 105.049H183.81V104.799ZM166.394 20.3657V20.1157H166.087L166.149 20.4163L166.394 20.3657ZM177.262 20.3657L177.477 20.4934L177.701 20.1157H177.262V20.3657ZM127.104 104.799V105.049H127.246L127.319 104.926L127.104 104.799ZM125.292 85.8499L125.073 85.7298L124.87 86.0999H125.292V85.8499ZM136.439 65.508V65.258H136.291L136.219 65.3879L136.439 65.508ZM184.089 65.508L184.336 65.4708L184.304 65.258H184.089V65.508ZM187.154 85.8499V86.0999H187.445L187.401 85.8127L187.154 85.8499ZM219.218 104.799L218.973 104.75L218.913 105.049H219.218V104.799ZM238.724 7.26891V7.01891H238.519L238.479 7.21988L238.724 7.26891ZM266.311 7.26891L266.556 7.31767L266.616 7.01891H266.311V7.26891ZM251.263 82.924L251.018 82.8753L250.959 83.174H251.263V82.924ZM297.799 82.924L298.044 82.974L298.105 82.674H297.799V82.924ZM293.341 104.799V105.049H293.545L293.586 104.848L293.341 104.799ZM341.458 45.0268V44.7768H341.252L341.212 44.9787L341.458 45.0268ZM386.739 45.0268L386.985 45.0749L387.043 44.7768H386.739V45.0268ZM382.699 65.6474V65.8974H382.905L382.944 65.6954L382.699 65.6474ZM337.417 65.6474L337.172 65.5993L337.113 65.8974H337.417V65.6474ZM335.745 83.4814L335.5 83.4328L335.441 83.7314H335.745V83.4814ZM386.879 83.4814L387.123 83.5325L387.186 83.2314H386.879V83.4814ZM382.42 104.799V105.049H382.623L382.665 104.85L382.42 104.799ZM304.257 104.799L304.012 104.75L303.952 105.049H304.257V104.799ZM323.763 7.26891V7.01891H323.558L323.518 7.21988L323.763 7.26891ZM400.115 7.26891L400.36 7.31855L400.421 7.01891H400.115V7.26891ZM395.796 28.5861V28.8361H396L396.041 28.6357L395.796 28.5861ZM346.613 28.5861V28.3361H346.408L346.368 28.5375L346.613 28.5861ZM55.8428 106.499C50.2836 106.499 44.9578 106.036 39.8648 105.11L39.7754 105.602C44.8999 106.534 50.2558 106.999 55.8428 106.999V106.499ZM39.8605 105.109C34.7657 104.275 30.1378 103.072 25.9757 101.499L25.799 101.967C29.9965 103.553 34.6572 104.764 39.7797 105.603L39.8605 105.109ZM25.9802 101.501C21.8119 99.8339 18.2515 98.0299 15.2962 96.0905L15.0219 96.5086C18.0113 98.4703 21.603 100.289 25.7945 101.965L25.9802 101.501ZM15.3802 96.4161L26.2478 75.7955L25.8055 75.5624L14.9379 96.183L15.3802 96.4161ZM25.8963 75.8923C29.2506 77.9422 32.6985 79.7127 36.2399 81.2039L36.4339 80.743C32.9161 79.2618 29.4905 77.5028 26.157 75.4657L25.8963 75.8923ZM36.2472 81.2068C39.8826 82.605 43.5652 83.6772 47.2948 84.4231L47.3929 83.9329C43.6917 83.1926 40.0363 82.1284 36.4267 80.7401L36.2472 81.2068ZM47.2948 84.4231C51.026 85.1694 54.7579 85.5426 58.4901 85.5426V85.0426C54.7915 85.0426 51.0925 84.6728 47.3929 83.9329L47.2948 84.4231ZM58.4901 85.5426C62.0338 85.5426 65.0749 85.2164 67.6091 84.5593L67.4837 84.0753C65.0021 84.7187 62.0056 85.0426 58.4901 85.0426V85.5426ZM67.6174 84.557C70.1494 83.8068 72.096 82.7686 73.4356 81.4289L73.0821 81.0753C71.821 82.3365 69.9592 83.3417 67.4754 84.0776L67.6174 84.557ZM73.4356 81.4289C74.7807 80.0838 75.4594 78.4884 75.4594 76.6543H74.9594C74.9594 78.3498 74.3378 79.8196 73.0821 81.0753L73.4356 81.4289ZM75.4594 76.6543C75.4594 74.6109 74.527 73.0017 72.6957 71.8451L72.4287 72.2678C74.1271 73.3405 74.9594 74.7964 74.9594 76.6543H75.4594ZM72.7086 71.8538C71.0068 70.6247 68.7495 69.5927 65.9463 68.7518L65.8026 69.2307C68.5726 70.0617 70.7737 71.0732 72.4158 72.2591L72.7086 71.8538ZM65.9463 68.7518C63.1547 67.9143 60.0387 67.0772 56.5986 66.2404L56.4804 66.7263C59.9138 67.5614 63.0211 68.3962 65.8026 69.2307L65.9463 68.7518ZM56.6064 66.2425C53.2682 65.3152 49.8832 64.2487 46.4514 63.0429L46.2857 63.5147C49.7274 64.7239 53.1231 65.7938 56.4726 66.7242L56.6064 66.2425ZM46.4592 63.0458C43.131 61.7515 40.082 60.1806 37.3116 58.3336L37.0342 58.7496C39.8369 60.6181 42.9184 62.2053 46.2779 63.5118L46.4592 63.0458ZM37.3163 58.3368C34.5592 56.4069 32.3078 53.9719 30.5608 51.0296L30.1309 51.2849C31.9135 54.2872 34.2134 56.7752 37.0295 58.7464L37.3163 58.3368ZM30.5637 51.0347C28.9179 48.1088 28.0879 44.4848 28.0879 40.1503H27.5879C27.5879 44.5471 28.4298 48.261 30.1279 51.2798L30.5637 51.0347ZM28.0879 40.1503C28.0879 33.1388 29.9782 27.0613 33.7521 21.9067L33.3486 21.6113C29.506 26.8599 27.5879 33.0433 27.5879 40.1503H28.0879ZM33.7521 21.9067C37.529 16.748 42.8766 12.7335 49.8079 9.86853L49.6169 9.40644C42.6154 12.3004 37.1883 16.3669 33.3486 21.6113L33.7521 21.9067ZM49.8068 9.86897C56.8296 7.00443 65.1094 5.56831 74.6521 5.56831V5.06831C65.0605 5.06831 56.7138 6.51164 49.618 9.406L49.8068 9.86897ZM74.6521 5.56831C81.6008 5.56831 88.0825 6.3095 94.0983 7.79032L94.2178 7.30481C88.1585 5.81329 81.6363 5.06831 74.6521 5.06831V5.56831ZM94.1019 7.79116C100.118 9.17955 105.293 11.214 109.632 13.8908L109.894 13.4652C105.501 10.7546 100.273 8.70214 94.2143 7.30397L94.1019 7.79116ZM109.538 13.568L99.5067 34.0493L99.9557 34.2692L109.987 13.788L109.538 13.568ZM99.8651 33.9481C96.0335 31.5183 91.783 29.6971 87.1152 28.4835L86.9894 28.9674C91.6102 30.1688 95.8123 31.9701 99.5973 34.3703L99.8651 33.9481ZM87.121 28.4851C82.5468 27.1781 77.833 26.5248 72.9802 26.5248V27.0248C77.7875 27.0248 82.4551 27.6719 86.9837 28.9658L87.121 28.4851ZM72.9802 26.5248C69.2471 26.5248 66.0164 26.9447 63.2925 27.79L63.4407 28.2676C66.1041 27.441 69.2824 27.0248 72.9802 27.0248V26.5248ZM63.2901 27.7908C60.6621 28.6355 58.6236 29.8151 57.1931 31.341L57.5578 31.683C58.9139 30.2366 60.8694 29.094 63.4431 28.2668L63.2901 27.7908ZM57.1927 31.3414C55.8529 32.7769 55.1749 34.4157 55.1749 36.2491H55.6749C55.6749 34.553 56.2973 33.0336 57.5582 31.6826L57.1927 31.3414ZM55.1749 36.2491C55.1749 38.1969 56.0577 39.8011 57.7864 41.0496L58.0791 40.6443C56.464 39.4778 55.6749 38.0168 55.6749 36.2491H55.1749ZM57.7864 41.0496C59.4881 42.2787 61.7455 43.3107 64.5487 44.1516L64.6924 43.6727C61.9224 42.8418 59.7213 41.8303 58.0791 40.6443L57.7864 41.0496ZM64.5508 44.1523C67.4313 44.9886 70.5439 45.8712 73.8886 46.8003L74.0224 46.3185C70.6793 45.3899 67.5686 44.5078 64.6902 43.6721L64.5508 44.1523ZM73.8964 46.8023C77.3244 47.6362 80.7061 48.6553 84.0415 49.8598L84.2113 49.3895C80.8591 48.179 77.4601 47.1546 74.0146 46.3165L73.8964 46.8023ZM84.0474 49.8618C87.3699 50.9693 90.4609 52.4918 93.3212 54.4294L93.6016 54.0155C90.703 52.0519 87.5707 50.5092 84.2055 49.3875L84.0474 49.8618ZM93.3259 54.4325C96.1731 56.2695 98.4208 58.6095 100.072 61.4537L100.505 61.2027C98.8123 58.288 96.5086 55.8909 93.597 54.0124L93.3259 54.4325ZM100.072 61.4537C101.717 64.2857 102.546 67.8156 102.546 72.0565H103.046C103.046 67.7519 102.204 64.1296 100.505 61.2027L100.072 61.4537ZM102.546 72.0565C102.546 78.9743 100.657 85.0055 96.8822 90.1608L97.2857 90.4561C101.128 85.2082 103.046 79.0714 103.046 72.0565H102.546ZM96.8822 90.1608C93.1059 95.3187 87.7125 99.3333 80.6881 102.198L80.877 102.661C87.9712 99.7678 93.4454 95.7014 97.2857 90.4561L96.8822 90.1608ZM80.6881 102.198C73.6654 105.063 65.3856 106.499 55.8428 106.499V106.999C65.4345 106.999 73.7811 105.556 80.877 102.661L80.6881 102.198ZM98.1946 104.934L160.753 7.40388L160.332 7.13393L97.7737 104.664L98.1946 104.934ZM160.542 7.51891H187.711V7.01891H160.542V7.51891ZM187.468 7.32758L211.015 104.857L211.501 104.74L187.954 7.21023L187.468 7.32758ZM211.258 104.549H183.81V105.049H211.258V104.549ZM184.055 104.748L166.639 20.3152L166.149 20.4163L183.565 104.849L184.055 104.748ZM166.394 20.6157H177.262V20.1157H166.394V20.6157ZM177.047 20.2381L126.889 104.671L127.319 104.926L177.477 20.4934L177.047 20.2381ZM127.104 104.549H97.9841V105.049H127.104V104.549ZM125.512 85.9701L136.658 65.6282L136.219 65.3879L125.073 85.7298L125.512 85.9701ZM136.439 65.758H184.089V65.258H136.439V65.758ZM183.842 65.5453L186.907 85.8872L187.401 85.8127L184.336 65.4708L183.842 65.5453ZM187.154 85.5999H125.292V86.0999H187.154V85.5999ZM219.463 104.848L238.969 7.31794L238.479 7.21988L218.973 104.75L219.463 104.848ZM238.724 7.51891H266.311V7.01891H238.724V7.51891ZM266.066 7.22014L251.018 82.8753L251.509 82.9728L266.556 7.31767L266.066 7.22014ZM251.263 83.174H297.799V82.674H251.263V83.174ZM297.554 82.8741L293.096 104.749L293.586 104.848L298.044 82.974L297.554 82.8741ZM293.341 104.549H219.218V105.049H293.341V104.549ZM341.458 45.2768H386.739V44.7768H341.458V45.2768ZM386.494 44.9787L382.453 65.5993L382.944 65.6954L386.985 45.0749L386.494 44.9787ZM382.699 65.3974H337.417V65.8974H382.699V65.3974ZM337.663 65.6954L341.703 45.0749L341.212 44.9787L337.172 65.5993L337.663 65.6954ZM335.745 83.7314H386.879V83.2314H335.745V83.7314ZM386.634 83.4302L382.175 104.747L382.665 104.85L387.123 83.5325L386.634 83.4302ZM382.42 104.549H304.257V105.049H382.42V104.549ZM304.502 104.848L324.008 7.31794L323.518 7.21988L304.012 104.75L304.502 104.848ZM323.763 7.51891H400.115V7.01891H323.763V7.51891ZM399.87 7.21926L395.551 28.5365L396.041 28.6357L400.36 7.31855L399.87 7.21926ZM395.796 28.3361H346.613V28.8361H395.796V28.3361ZM346.368 28.5375L335.5 83.4328L335.991 83.5299L346.858 28.6346L346.368 28.5375Z" fill="black"/>
<path d="M45.6255 102.105C37.5445 102.105 29.8814 101.13 22.6364 99.179C15.3913 97.2284 9.49309 94.7205 4.94171 91.6553L15.8093 71.0347C20.7322 74.1928 25.9802 76.6078 31.5534 78.2798C37.1265 79.8588 42.6996 80.6484 48.2727 80.6484C53.5672 80.6484 57.6542 79.9053 60.5336 78.4191C63.5059 76.84 64.9921 74.7037 64.9921 72.01C64.9921 69.6879 63.6453 67.8766 60.9516 66.5762C58.3508 65.2758 54.2638 63.8825 48.6907 62.3964C42.3745 60.7244 37.1265 59.0525 32.9466 57.3806C28.7668 55.6157 25.1443 52.9685 22.0791 49.4389C19.1067 45.9092 17.6206 41.265 17.6206 35.5061C17.6206 28.5397 19.5247 22.4557 23.333 17.2541C27.1413 11.9596 32.5751 7.87266 39.6344 4.99321C46.6937 2.11377 54.9605 0.674042 64.4348 0.674042C71.4012 0.674042 77.9032 1.41713 83.9407 2.9033C89.9783 4.29657 95.1798 6.34005 99.5455 9.03372L89.5138 29.515C85.7055 27.0999 81.4793 25.2887 76.835 24.0812C72.2836 22.7808 67.5929 22.1306 62.7628 22.1306C57.2826 22.1306 52.9634 23.013 49.8053 24.7778C46.7401 26.5426 45.2075 28.8183 45.2075 31.6049C45.2075 34.0199 46.5544 35.8776 49.248 37.178C51.9417 38.4784 56.1215 39.8717 61.7876 41.3578C68.1038 42.9369 73.3053 44.5624 77.3923 46.2343C81.5721 47.9063 85.1482 50.4606 88.1206 53.8974C91.0929 57.3341 92.5791 61.8391 92.5791 67.4122C92.5791 74.2857 90.6285 80.3697 86.7273 85.6642C82.919 90.8657 77.4387 94.9063 70.2866 97.7857C63.2273 100.665 55.0069 102.105 45.6255 102.105Z" fill="black"/>
<path d="M169.692 81.2057H128.172L116.886 100.154H87.7668L150.325 2.62463H177.494L201.041 100.154H173.593L169.692 81.2057ZM165.512 60.8638L158.963 29.2363L140.293 60.8638H165.512Z" fill="black"/>
<path d="M228.507 2.62463H256.094L241.046 78.2798H287.582L283.123 100.154H209.001L228.507 2.62463Z" fill="black"/>
<path d="M336.396 23.9418L333.191 40.3825H376.522L372.481 61.0031H329.011L325.528 78.8371H376.661L372.203 100.154H294.04L313.546 2.62463H389.897L385.578 23.9418H336.396Z" fill="black"/>
<path d="M18.9209 99.179L18.8559 99.4204L18.9209 99.179ZM1.22626 91.6553L1.00509 91.5387L0.900452 91.7373L1.08661 91.8626L1.22626 91.6553ZM12.0938 71.0347L12.2288 70.8243L11.9996 70.6773L11.8727 70.9182L12.0938 71.0347ZM27.8379 78.2798L27.7661 78.5193L27.7698 78.5203L27.8379 78.2798ZM56.8181 78.4191L56.9328 78.6413L56.9354 78.6399L56.8181 78.4191ZM57.2361 66.5762L57.1243 66.7998L57.1274 66.8014L57.2361 66.5762ZM44.9753 62.3964L45.0397 62.1548L45.0392 62.1547L44.9753 62.3964ZM29.2312 57.3806L29.1339 57.6109L29.1383 57.6127L29.2312 57.3806ZM18.3636 49.4389L18.1724 49.5999L18.1748 49.6028L18.3636 49.4389ZM19.6176 17.2541L19.8193 17.4018L19.8205 17.4001L19.6176 17.2541ZM35.9189 4.99321L36.0134 5.2247L35.9189 4.99321ZM80.2253 2.9033L80.1655 3.14607L80.1691 3.14689L80.2253 2.9033ZM95.83 9.03372L96.0545 9.14369L96.1543 8.94004L95.9613 8.82097L95.83 9.03372ZM85.7984 29.515L85.6645 29.7261L85.9002 29.8755L86.0229 29.6249L85.7984 29.515ZM73.1195 24.0812L73.0508 24.3216L73.0566 24.3231L73.1195 24.0812ZM46.0899 24.7778L45.9679 24.5595L45.9651 24.5611L46.0899 24.7778ZM45.5326 37.178L45.4239 37.4031L45.5326 37.178ZM58.0721 41.3578L58.0087 41.5997L58.0115 41.6004L58.0721 41.3578ZM73.6768 46.2343L73.5822 46.4657L73.584 46.4664L73.6768 46.2343ZM83.0118 85.6642L82.8106 85.5159L82.8101 85.5165L83.0118 85.6642ZM66.5711 97.7857L66.4777 97.5538L66.4767 97.5542L66.5711 97.7857ZM165.976 81.2057L166.221 81.1553L166.18 80.9557H165.976V81.2057ZM124.456 81.2057V80.9557H124.314L124.242 81.0777L124.456 81.2057ZM113.171 100.154V100.404H113.313L113.386 100.282L113.171 100.154ZM84.0513 100.154L83.8409 100.019L83.594 100.404H84.0513V100.154ZM146.61 2.62463V2.37463H146.473L146.399 2.48966L146.61 2.62463ZM173.779 2.62463L174.022 2.56596L173.975 2.37463H173.779V2.62463ZM197.325 100.154V100.404H197.643L197.568 100.096L197.325 100.154ZM169.877 100.154L169.633 100.205L169.674 100.404H169.877V100.154ZM161.796 60.8638V61.1138H162.103L162.041 60.8131L161.796 60.8638ZM155.248 29.2363L155.493 29.1856L155.362 28.552L155.033 29.1092L155.248 29.2363ZM136.578 60.8638L136.363 60.7367L136.14 61.1138H136.578V60.8638ZM224.791 2.62463V2.37463H224.586L224.546 2.57561L224.791 2.62463ZM252.378 2.62463L252.623 2.6734L252.683 2.37463H252.378V2.62463ZM237.331 78.2798L237.085 78.231L237.026 78.5298H237.331V78.2798ZM283.866 78.2798L284.111 78.3297L284.172 78.0298H283.866V78.2798ZM279.408 100.154V100.404H279.612L279.653 100.204L279.408 100.154ZM205.285 100.154L205.04 100.105L204.98 100.404H205.285V100.154ZM332.68 23.9418V23.6918H332.474L332.435 23.894L332.68 23.9418ZM329.476 40.3825L329.23 40.3347L329.172 40.6325H329.476V40.3825ZM372.807 40.3825L373.052 40.4306L373.11 40.1325H372.807V40.3825ZM368.766 61.0031V61.2531H368.972L369.011 61.0512L368.766 61.0031ZM325.296 61.0031V60.7531H325.09L325.05 60.9552L325.296 61.0031ZM321.812 78.8371L321.567 78.7892L321.509 79.0871H321.812V78.8371ZM372.946 78.8371L373.191 78.8883L373.254 78.5871H372.946V78.8371ZM368.487 100.154V100.404H368.69L368.732 100.205L368.487 100.154ZM290.324 100.154L290.079 100.105L290.019 100.404H290.324V100.154ZM309.83 2.62463V2.37463H309.625L309.585 2.57561L309.83 2.62463ZM386.182 2.62463L386.427 2.67428L386.488 2.37463H386.182V2.62463ZM381.863 23.9418V24.1918H382.067L382.108 23.9915L381.863 23.9418ZM41.91 101.855C33.8493 101.855 26.2082 100.882 18.9859 98.9376L18.8559 99.4204C26.1237 101.377 33.8088 102.355 41.91 102.355V101.855ZM18.9859 98.9376C11.7584 96.9917 5.88778 94.4932 1.36591 91.4479L1.08661 91.8626C5.6675 94.9477 11.5934 97.4651 18.8559 99.4204L18.9859 98.9376ZM1.44742 91.7718L12.315 71.1513L11.8727 70.9182L1.00509 91.5387L1.44742 91.7718ZM11.9589 71.2451C16.9013 74.4157 22.1705 76.8406 27.7661 78.5192L27.9098 78.0403C22.359 76.3751 17.1323 73.9699 12.2288 70.8243L11.9589 71.2451ZM27.7698 78.5203C33.3642 80.1054 38.9602 80.8984 44.5573 80.8984V80.3984C39.0081 80.3984 33.4579 79.6123 27.9061 78.0392L27.7698 78.5203ZM44.5573 80.8984C49.8692 80.8984 54.0023 80.1538 56.9328 78.6413L56.7035 78.1969C53.8751 79.6567 49.8343 80.3984 44.5573 80.3984V80.8984ZM56.9354 78.6399C59.9653 77.0303 61.5266 74.8206 61.5266 72.01H61.0266C61.0266 74.5868 59.6156 76.6498 56.7009 78.1983L56.9354 78.6399ZM61.5266 72.01C61.5266 69.5629 60.0952 67.6789 57.3448 66.3511L57.1274 66.8014C59.7644 68.0744 61.0266 69.8129 61.0266 72.01H61.5266ZM57.3479 66.3526C54.7236 65.0404 50.6165 63.642 45.0397 62.1548L44.9109 62.6379C50.4803 64.1231 54.5471 65.5112 57.1243 66.7998L57.3479 66.3526ZM45.0392 62.1547C38.7289 60.4843 33.4913 58.8154 29.324 57.1484L29.1383 57.6127C33.3308 59.2897 38.5892 60.9646 44.9113 62.6381L45.0392 62.1547ZM29.3284 57.1503C25.1849 55.4007 21.5933 52.7767 18.5524 49.2749L18.1748 49.6028C21.2643 53.1604 24.9179 55.8307 29.134 57.6109L29.3284 57.1503ZM18.5548 49.2778C15.6291 45.8036 14.1551 41.2211 14.1551 35.5061H13.6551C13.6551 41.3088 15.1534 46.0149 18.1724 49.5999L18.5548 49.2778ZM14.1551 35.5061C14.1551 28.5882 16.0449 22.557 19.8193 17.4018L19.4158 17.1064C15.5736 22.3543 13.6551 28.4911 13.6551 35.5061H14.1551ZM19.8205 17.4001C23.597 12.1498 28.9901 8.08945 36.0134 5.2247L35.8245 4.76173C28.7292 7.65587 23.2547 11.7694 19.4146 17.1081L19.8205 17.4001ZM36.0134 5.2247C43.0364 2.36005 51.2698 0.924042 60.7193 0.924042V0.424042C51.2202 0.424042 42.9201 1.86748 35.8245 4.76173L36.0134 5.2247ZM60.7193 0.924042C67.668 0.924042 74.1497 1.66523 80.1655 3.14605L80.285 2.66054C74.2257 1.16902 67.7035 0.424042 60.7193 0.424042V0.924042ZM80.1691 3.14689C86.1854 4.53528 91.3605 6.56973 95.6987 9.24648L95.9613 8.82097C91.5683 6.11037 86.3402 4.05787 80.2815 2.6597L80.1691 3.14689ZM95.6055 8.92376L85.5739 29.405L86.0229 29.6249L96.0545 9.14369L95.6055 8.92376ZM85.9323 29.3038C82.1007 26.874 77.8502 25.0528 73.1824 23.8392L73.0566 24.3231C77.6774 25.5245 81.8795 27.3258 85.6645 29.7261L85.9323 29.3038ZM73.1882 23.8408C68.614 22.5339 63.9002 21.8806 59.0474 21.8806V22.3806C63.8547 22.3806 68.5223 23.0277 73.0509 24.3215L73.1882 23.8408ZM59.0474 21.8806C53.5447 21.8806 49.1777 22.7659 45.9679 24.5596L46.2118 24.996C49.3183 23.2601 53.5896 22.3806 59.0474 22.3806V21.8806ZM45.9651 24.5611C42.8466 26.3567 41.2421 28.7041 41.2421 31.6049H41.7421C41.7421 28.9325 43.2027 26.7286 46.2146 24.9945L45.9651 24.5611ZM41.2421 31.6049C41.2421 32.8621 41.5938 33.9823 42.2998 34.9562C43.0037 35.9271 44.0508 36.7402 45.4239 37.4031L45.6413 36.9529C44.3207 36.3153 43.3475 35.5494 42.7046 34.6627C42.0638 33.7788 41.7421 32.7626 41.7421 31.6049H41.2421ZM45.4239 37.4031C48.14 38.7144 52.3389 40.1125 58.0087 41.5997L58.1355 41.116C52.4733 39.6308 48.3125 38.2424 45.6413 36.9529L45.4239 37.4031ZM58.0115 41.6004C64.321 43.1777 69.5101 44.7999 73.5822 46.4657L73.7715 46.0029C69.6696 44.3249 64.4556 42.696 58.1327 41.1153L58.0115 41.6004ZM73.584 46.4664C77.7264 48.1234 81.2696 50.6541 84.216 54.0609L84.5942 53.7338C81.596 50.2671 77.987 47.6891 73.7697 46.0022L73.584 46.4664ZM84.216 54.0609C87.1407 57.4426 88.6136 61.885 88.6136 67.4122H89.1136C89.1136 61.7932 87.6142 57.2257 84.5942 53.7338L84.216 54.0609ZM88.6136 67.4122C88.6136 74.2349 86.6786 80.2664 82.8106 85.5159L83.2131 85.8125C87.1474 80.473 89.1136 74.3365 89.1136 67.4122H88.6136ZM82.8101 85.5165C79.0343 90.6736 73.5952 94.6883 66.4778 97.5538L66.6645 98.0176C73.8514 95.1242 79.3727 91.0579 83.2135 85.8118L82.8101 85.5165ZM66.4767 97.5542C59.4534 100.419 51.2663 101.855 41.91 101.855V102.355C51.3166 102.355 59.5702 100.911 66.6655 98.0172L66.4767 97.5542ZM165.976 80.9557H124.456V81.4557H165.976V80.9557ZM124.242 81.0777L112.956 100.026L113.386 100.282L124.671 81.3336L124.242 81.0777ZM113.171 99.9043H84.0513V100.404H113.171V99.9043ZM84.2618 100.289L146.82 2.75961L146.399 2.48966L83.8409 100.019L84.2618 100.289ZM146.61 2.87463H173.779V2.37463H146.61V2.87463ZM173.536 2.68331L197.082 100.213L197.568 100.096L174.022 2.56596L173.536 2.68331ZM197.325 99.9043H169.877V100.404H197.325V99.9043ZM170.122 100.104L166.221 81.1553L165.731 81.2561L169.633 100.205L170.122 100.104ZM162.041 60.8131L155.493 29.1856L155.003 29.287L161.552 60.9145L162.041 60.8131ZM155.033 29.1092L136.363 60.7367L136.793 60.9908L155.463 29.3634L155.033 29.1092ZM136.578 61.1138H161.796V60.6138H136.578V61.1138ZM224.791 2.87463H252.378V2.37463H224.791V2.87463ZM252.133 2.57587L237.085 78.231L237.576 78.3285L252.623 2.6734L252.133 2.57587ZM237.331 78.5298H283.866V78.0298H237.331V78.5298ZM283.621 78.2298L279.163 100.104L279.653 100.204L284.111 78.3297L283.621 78.2298ZM279.408 99.9043H205.285V100.404H279.408V99.9043ZM205.53 100.203L225.036 2.67366L224.546 2.57561L205.04 100.105L205.53 100.203ZM332.435 23.894L329.23 40.3347L329.721 40.4304L332.925 23.9897L332.435 23.894ZM329.476 40.6325H372.807V40.1325H329.476V40.6325ZM372.561 40.3345L368.521 60.955L369.011 61.0512L373.052 40.4306L372.561 40.3345ZM368.766 60.7531H325.296V61.2531H368.766V60.7531ZM325.05 60.9552L321.567 78.7892L322.058 78.885L325.541 61.051L325.05 60.9552ZM321.812 79.0871H372.946V78.5871H321.812V79.0871ZM372.701 78.7859L368.243 100.103L368.732 100.205L373.191 78.8883L372.701 78.7859ZM368.487 99.9043H290.324V100.404H368.487V99.9043ZM290.569 100.203L310.075 2.67366L309.585 2.57561L290.079 100.105L290.569 100.203ZM309.83 2.87463H386.182V2.37463H309.83V2.87463ZM385.937 2.57499L381.618 23.8922L382.108 23.9915L386.427 2.67428L385.937 2.57499ZM381.863 23.6918H332.68V24.1918H381.863V23.6918Z" fill="white"/>
</svg>
