<svg width="19" height="19" viewBox="0 0 19 19" fill="none" xmlns="http://www.w3.org/2000/svg">
<path d="M7.89783 2.09224C9.05194 2.09118 10.1804 2.43245 11.1406 3.07288C12.1007 3.7133 12.8493 4.6241 13.2917 5.69006C13.7341 6.75602 13.8504 7.92924 13.6258 9.0613C13.4013 10.1934 12.8461 11.2334 12.0304 12.0499C11.2147 12.8663 10.1752 13.4225 9.0433 13.648C7.91144 13.8736 6.73812 13.7584 5.67175 13.3169C4.60539 12.8755 3.69391 12.1278 3.05261 11.1682C2.41131 10.2087 2.06901 9.0805 2.069 7.92639C2.076 6.38215 2.69219 4.90308 3.78364 3.81063C4.87509 2.71818 6.3536 2.10065 7.89783 2.09224ZM7.89783 1C6.52792 1 5.18877 1.40623 4.04973 2.16731C2.91069 2.92839 2.02292 4.01014 1.49868 5.27577C0.974437 6.5414 0.837271 7.93407 1.10453 9.27766C1.37178 10.6212 2.03146 11.8554 3.00013 12.8241C3.9688 13.7928 5.20297 14.4524 6.54655 14.7197C7.89014 14.9869 9.28281 14.8498 10.5484 14.3255C11.8141 13.8013 12.8958 12.9135 13.6569 11.7745C14.418 10.6354 14.8242 9.2963 14.8242 7.92639C14.8242 6.08939 14.0945 4.32764 12.7955 3.02869C11.4966 1.72974 9.73482 1 7.89783 1Z" fill="#444444" stroke="#444444" stroke-width="0.2"/>
<path d="M17.8452 17.1385L13.9185 13.1851L13.1619 13.9364L17.0886 17.8897C17.1379 17.9394 17.1966 17.9789 17.2612 18.0059C17.3257 18.0329 17.395 18.047 17.465 18.0472C17.535 18.0475 17.6044 18.0339 17.6692 18.0073C17.7339 17.9808 17.7928 17.9417 17.8425 17.8924C17.8922 17.8431 17.9317 17.7844 17.9587 17.7199C17.9857 17.6553 17.9997 17.586 18 17.516C18.0002 17.446 17.9867 17.3766 17.9601 17.3118C17.9336 17.2471 17.8945 17.1882 17.8452 17.1385Z" fill="#444444" stroke="#444444" stroke-width="0.2"/>
</svg>
